<svg width="145" height="123" viewBox="0 0 145 123" fill="none" xmlns="http://www.w3.org/2000/svg">
<path d="M114.055 70.2739C113.506 68.6919 112.906 67.1249 112.419 65.5229C111.49 62.4649 111.571 59.2939 111.482 56.1449C111.419 53.9079 111.436 51.7009 112.683 49.7029C113.045 49.1229 113.372 48.5219 113.899 48.0769C115.91 46.3789 118.099 44.9019 120.515 43.9049C121.906 43.3309 123.482 43.4019 125.038 43.9339C126.823 44.5439 128.692 44.9599 130.556 45.2759C132.747 45.6479 134.665 46.4389 136.222 48.0569C137.251 49.1259 138.495 49.9129 139.794 50.6139C140.465 50.9759 141.067 51.4219 141.543 52.0269C142.906 53.7619 142.628 55.3959 140.579 56.1219C137.172 57.3299 134.259 59.6939 130.587 60.2659C128.442 60.5999 126.414 60.6159 124.268 59.9069C122.017 59.1629 120.113 57.8529 118.022 56.8639C116.533 56.1589 115.039 55.9809 113.639 56.9849C112.242 57.9879 112.362 59.5579 112.449 61.0079C112.781 66.5609 115.11 71.2269 118.609 75.5009C121.514 79.0499 124.119 82.8499 126.599 86.7249C130.953 93.5279 134.896 100.571 138.793 107.638C139.67 109.229 140.2 111.013 140.881 112.712C142.092 115.734 143.296 118.759 144.503 121.783C144.581 121.978 144.737 122.223 144.447 122.331C143.952 122.515 144.092 121.763 143.685 121.763C143.562 122.096 143.78 122.483 143.462 122.846C142.707 120.976 141.839 119.177 141.251 117.291C140.316 114.293 138.951 111.494 137.703 108.631C134.495 101.277 129.964 94.7079 125.743 87.9479C123.269 83.9849 120.8 80.0299 117.948 76.3179C116.677 74.6629 112.335 73.9749 110.755 76.3799C108.22 80.2389 108.162 83.8709 110.612 87.7339C111.928 89.8099 112.708 92.1219 112.364 94.6639C112.23 95.6569 111.679 96.3999 111.067 97.1899C109.599 99.0869 107.629 100.432 105.972 102.114C104.487 103.621 102.432 103.142 101.109 101.147C99.5281 98.7639 98.7831 96.0799 98.1091 93.3549C97.5931 91.2709 96.8311 89.2289 96.9781 87.0349C97.1341 84.6959 97.7691 82.5349 99.3891 80.7379C100.205 79.8329 100.927 78.8439 101.723 77.9199C103.195 76.2099 105.144 75.3389 107.306 74.9479C109.16 74.6129 111.072 74.7869 112.911 74.1219C113.928 73.7539 115.103 74.0069 116.399 74.5429C115.003 72.4569 113.111 71.3169 111.508 69.8769C111.215 69.6139 110.823 69.4409 110.585 69.1399C108.645 66.6839 106.199 67.1619 103.764 68.0229C99.4001 69.5659 95.0461 70.4669 90.5751 68.4539C90.1141 68.2469 89.5251 68.1409 89.5211 67.5389C89.5171 66.9689 89.9301 66.5079 90.4521 66.3369C93.6771 65.2789 96.9141 64.2039 100.285 63.7709C102.085 63.5399 103.683 64.5049 105.199 65.4329C105.81 65.8069 106.409 66.2339 107.409 65.9909C106.346 65.0249 105.391 64.1239 104.4 63.2629C102.182 61.3329 99.9691 59.3959 97.7101 57.5149C96.1691 56.2309 94.6101 54.9519 92.9591 53.8169C89.9901 51.7749 86.8951 51.9139 83.8741 53.7099C80.5621 55.6789 77.3421 57.8379 74.9601 60.9109C72.1781 64.4979 69.8191 68.3349 69.7081 73.1169C69.6871 74.0169 69.4731 75.1619 68.4401 75.2129C67.3691 75.2659 66.5041 74.4299 66.1971 73.3379C65.8481 72.0979 65.6281 70.8209 65.3741 69.5559C64.9791 67.5879 64.4501 65.6309 64.2521 63.6419C63.8601 59.7219 65.2211 56.4049 68.6071 54.3169C72.0481 52.1949 75.6521 50.3709 79.8641 50.1079C81.5831 50.0009 82.8971 50.8519 84.3771 51.3049C85.9281 51.7799 87.4631 51.5889 89.0711 51.3739C87.2451 50.4259 85.4101 49.4949 83.5951 48.5259C78.9551 46.0479 74.1641 43.8619 69.5021 41.4469C65.9051 39.5839 62.0961 38.1729 58.6051 36.1109C57.6361 35.5389 56.7151 36.0069 55.8421 36.4019C52.0971 38.0979 50.8651 41.3619 50.5721 45.1269C50.4361 46.8759 50.5271 48.6409 50.4951 50.3989C50.4771 51.3759 50.3471 52.3089 49.6671 53.1129C48.3431 54.6769 47.0761 56.3229 44.9591 56.8389C42.6471 57.4019 40.6721 58.6159 38.6801 59.8359C36.3451 61.2649 34.9531 60.5539 34.6291 57.8279C34.5991 57.5779 34.6031 57.3239 34.5671 57.0759C34.1011 53.9109 35.0501 50.8749 35.4371 47.7909C35.5751 46.6889 35.4491 45.5899 35.6931 44.4749C36.2331 41.9989 37.4671 40.0659 39.7161 38.9259C41.9531 37.7919 44.2731 36.7509 46.7881 36.4629C48.2321 36.2969 49.7331 36.4119 51.1841 36.5959C52.5311 36.7669 53.7281 36.6309 54.8871 35.9069C55.3581 35.6129 55.9351 35.4859 56.4831 35.2759C56.2931 34.8199 55.9331 34.5269 55.4411 34.3209C52.4341 33.0639 49.3191 32.1089 46.2631 30.9929C43.4111 29.9519 40.4221 29.2189 37.8041 27.5869C37.5141 27.4059 37.2001 27.2969 36.8831 27.4179C33.9721 28.5299 30.9271 28.2159 27.9211 28.2399C24.4101 28.2689 22.9981 29.7659 23.3571 33.2479C23.5831 35.4429 24.3891 37.5009 24.9031 39.6279C25.8471 43.5329 24.6751 46.9769 22.6331 50.2079C22.1911 50.9069 21.4701 51.5169 20.7431 51.9309C18.4781 53.2169 16.6461 55.0749 14.5021 56.5169C13.4721 57.2099 12.4381 57.2269 11.3341 56.9019C11.0151 56.8079 10.7271 56.5779 10.7901 56.1949C11.2991 53.1229 10.7531 50.1479 9.99808 47.1899C9.55808 45.4649 10.4181 43.8709 10.5141 42.1949C10.5851 40.9469 10.8641 39.7099 11.0751 38.4719C11.7321 34.6129 16.1801 30.0419 19.9491 29.6059C21.7061 29.4029 23.2591 28.9529 24.7561 28.0209C26.2751 27.0749 28.0091 27.4419 29.6911 27.5039C31.7951 27.5819 33.9161 27.6499 36.0371 26.9289C35.6891 26.3399 35.0861 26.3519 34.6571 26.0879C33.3431 25.2809 32.0651 24.4279 30.7961 23.5499C29.0301 22.3279 26.9101 21.8079 24.7731 22.0149C21.7401 22.3089 18.8671 21.7259 15.9631 21.0059C12.2061 20.0749 9.17708 18.0829 7.12208 14.8599C5.56308 12.4139 3.80008 10.1269 2.18108 7.73389C1.49008 6.70489 0.939079 5.57789 0.23808 4.53889C-0.41192 3.57489 0.351079 2.29789 1.52008 2.41789C4.33708 2.70689 7.11608 3.28289 9.85208 3.98889C14.7311 5.24989 19.0971 7.49089 22.5351 11.2759C24.2341 13.1459 25.3161 15.4469 26.6941 17.5419C27.9831 19.5019 29.4421 21.3269 31.3641 22.6629C33.8621 24.3999 36.3441 26.1909 39.1471 27.4379C42.2891 28.8359 45.6511 29.6229 48.8441 30.8849C50.7981 31.6569 52.7731 32.3789 54.8611 33.0589C53.3651 31.2449 53.3581 29.0469 53.0181 26.9209C52.8001 25.5599 51.8201 24.4979 51.1651 23.3179C50.7691 22.6029 50.4231 21.8229 49.9411 21.1909C47.8201 18.4069 48.3191 15.3859 48.9551 12.3299C49.1151 11.5599 49.3521 10.8049 49.5041 10.0339C50.3441 5.78289 56.8001 1.90689 60.7381 1.97289C64.2201 2.03089 67.7961 1.86089 71.0271 0.160894C71.5911 -0.136106 72.1261 0.0048936 72.5101 0.364894C72.9331 0.760894 72.5621 1.27189 72.3481 1.64889C71.9251 2.39589 71.4071 3.08889 70.9331 3.80689C70.3891 4.63089 70.0961 5.53089 69.9831 6.52189C69.6991 9.02789 68.1111 10.9149 66.8231 12.9359C65.0441 15.7269 62.2551 17.4589 59.7491 19.4579C57.7761 21.0309 55.8831 22.6279 54.5381 24.7829C53.9301 25.7579 54.4201 26.8279 54.3841 27.8489C54.3361 29.2349 54.4461 30.5969 55.1031 31.9159C55.9371 33.5899 57.2591 34.5139 58.9491 35.1059C62.1081 36.2119 64.9301 38.0209 67.9241 39.4719C70.4231 40.6829 72.7891 42.1779 75.4781 43.0419C73.8811 41.5979 72.7111 39.8179 71.7251 37.9809C70.4581 35.6189 68.7161 33.6139 67.2761 31.3919C66.6291 30.3939 66.0951 29.2959 66.6511 28.0499C66.8061 27.7029 66.9731 27.2769 67.5181 27.4849C69.1921 28.1219 70.8741 28.9519 72.1371 30.0919C73.9901 31.7649 75.1151 34.0729 75.8501 36.5349C76.5131 38.7559 77.0951 41.0079 78.3831 43.0119C79.7881 45.1999 81.7031 46.5859 84.0481 47.6779C86.8261 48.9719 89.4241 50.6549 92.1021 52.1659C92.1561 52.1959 92.2351 52.1819 92.2891 52.1869C90.8571 48.7849 89.2001 45.6159 86.3511 43.0239C83.6681 40.5839 82.3061 37.2409 81.6931 33.5769C81.2971 31.2079 81.2091 28.8249 80.9141 26.4559C80.6731 24.5249 81.6091 22.8919 82.5141 21.3089C83.7061 19.2239 84.5311 17.0299 84.8961 14.6599C85.0211 13.8509 85.3581 13.1449 86.0221 12.6519C86.9661 11.9499 88.4241 12.3079 89.0691 13.6599C90.0131 15.6359 91.6001 17.0179 93.0011 18.5929C95.2751 21.1499 96.3821 24.2539 96.7301 27.6039C97.2371 32.4859 95.6501 36.9009 93.4511 41.1459C92.9721 42.0699 92.4871 42.9949 91.9281 43.8709C90.6581 45.8619 91.4251 47.7779 92.1691 49.6359C92.9851 51.6749 94.2131 53.3579 96.0341 54.7849C100.832 58.5439 105.319 62.6809 109.73 66.8949C111.044 68.1509 112.489 69.2689 113.874 70.4509C113.936 70.3899 113.996 70.3319 114.055 70.2739ZM112.236 56.4979C114.222 55.4009 116.783 55.1079 118.055 55.7799C119.131 56.3479 120.229 56.8879 121.252 57.5419C124.977 59.9229 128.896 60.4199 133.046 58.8579C135.522 57.9259 137.685 56.3279 140.241 55.5349C141.866 55.0309 142.121 53.5659 140.901 52.3279C140.529 51.9499 140.069 51.6489 139.621 51.3549C138.426 50.5699 137.123 49.9569 136.11 48.8929C134.446 47.1449 132.387 46.2339 129.989 45.8229C128.132 45.5049 126.227 45.2659 124.457 44.5279C123.49 44.1249 122.501 44.1299 121.506 44.3659C118.924 44.9789 116.791 46.4949 114.896 48.1909C112.501 50.3349 112.371 53.3929 112.236 56.4979ZM90.2831 45.8259C90.1461 45.0999 90.0291 44.5459 89.9381 43.9869C89.5211 41.4059 89.1611 38.7339 90.7951 36.4949C92.3661 34.3439 93.3641 32.0299 94.2861 29.5519C95.8831 25.2589 94.6761 21.7729 91.9371 18.5529C90.7121 17.1129 89.2141 15.9129 88.4541 14.0929C88.1831 13.4439 87.6651 12.7849 86.8111 12.9579C85.9541 13.1319 85.6701 13.9029 85.5421 14.6599C85.1271 17.0949 84.2341 19.3399 83.0371 21.4909C82.5541 22.3589 82.0841 23.2929 81.8921 24.2539C81.3081 27.1759 81.9401 30.0639 82.2711 32.9719C82.9001 38.4979 86.0541 42.3699 90.2831 45.8259ZM22.6961 30.1639C21.9941 30.3309 21.4091 30.5749 20.8151 30.5959C16.3501 30.7519 13.9251 33.6269 12.2081 37.2329C11.1671 39.4179 11.4631 41.9589 10.8941 44.2869C10.5231 45.8059 10.6241 47.2499 11.0251 48.7409C11.6151 50.9329 11.8491 53.1739 11.5781 55.4479C11.4791 56.2739 11.9641 56.4939 12.6231 56.2849C13.4721 56.0149 14.2931 55.6869 15.0251 55.1119C16.3771 54.0499 17.6951 52.8569 19.2221 52.1209C22.8211 50.3869 25.2321 43.6519 24.2541 40.1349C23.3571 36.9159 22.0781 33.7279 22.6961 30.1639ZM52.5961 37.6699C52.1421 37.6699 51.9001 37.7149 51.6811 37.6629C47.6771 36.7109 43.9411 37.5479 40.3651 39.3749C38.0711 40.5469 36.5931 42.3949 36.3441 44.9869C36.0801 47.7379 35.6951 50.4639 35.2751 53.1939C34.9901 55.0499 34.9561 56.9889 35.5011 58.8479C35.7621 59.7399 36.3361 60.0569 37.2321 59.5709C39.9691 58.0839 42.7671 56.7209 45.5961 55.4149C48.3661 54.1359 49.7571 51.9289 49.7431 48.8319C49.7251 44.9269 49.0801 40.8559 52.5961 37.6699ZM110.416 75.4309C107.436 75.2959 104.909 75.9689 102.861 77.8669C101.764 78.8839 100.903 80.1529 99.9151 81.2899C98.1991 83.2649 97.4441 85.5659 97.6531 88.1529C97.8971 91.1779 99.0271 93.9989 99.7871 96.9059C100.144 98.2719 100.808 99.5029 101.563 100.683C102.638 102.365 104.27 102.719 105.505 101.45C106.363 100.568 107.408 99.9209 108.272 99.0789C111.233 96.1929 112.742 93.9539 110.433 89.2839C109.77 87.9419 108.901 86.7149 108.45 85.2469C107.352 81.6739 108.378 78.5499 110.416 75.4309ZM28.6851 21.7719C26.2881 19.1549 24.7851 15.9789 22.7121 13.1969C19.7151 9.17689 15.7561 6.69189 11.0991 5.10489C8.16708 4.10589 5.08008 3.84889 2.10408 3.07089C1.66508 2.95589 1.12308 2.80889 0.80608 3.25889C0.47208 3.73289 0.74608 4.19589 1.03108 4.64189C2.40308 6.78589 3.68708 8.99489 5.30408 10.9639C6.58708 12.5259 7.29108 14.4659 8.64308 15.9619C12.0501 19.7309 16.5781 20.8649 21.3921 21.3069C23.8031 21.5289 26.2731 20.7879 28.6851 21.7719ZM71.9021 0.919894C71.6461 0.715894 71.4281 0.759894 71.2371 0.860894C67.8631 2.64789 64.1551 2.41589 60.5251 2.61689C56.4791 2.84089 53.3891 4.83089 51.0491 7.95589C49.8991 9.49089 49.8241 11.5209 49.4491 13.3799C48.6281 17.4519 49.9541 21.6969 52.9741 24.6839C52.8671 21.2819 52.9531 21.3059 53.7061 19.9349C55.3421 16.9589 57.9471 15.1439 60.8761 13.6749C63.1611 12.5299 65.3691 11.2619 67.1291 9.36489C67.8291 8.60989 68.7341 7.87589 68.9031 6.85689C69.1471 5.38089 69.7981 4.15589 70.5591 2.92889C70.9851 2.24289 71.6551 1.70789 71.9021 0.919894ZM84.9831 52.3659C82.2921 50.9849 79.6651 50.5169 76.8481 51.2839C74.1211 52.0259 71.6111 53.2689 69.2321 54.7239C65.7481 56.8549 64.4221 60.1259 65.0141 64.1039C65.4451 67.0039 66.0831 69.8729 66.6551 72.7509C66.7751 73.3549 67.0651 74.0859 67.7191 74.0509C68.3421 74.0169 68.6241 73.3009 68.7311 72.6749C68.9131 71.6139 68.9651 70.5199 69.2511 69.4889C70.5171 64.9209 73.5271 61.4069 76.5021 57.9129C78.7271 55.3009 81.6041 53.5469 84.9831 52.3659ZM106.192 66.6939C103.988 65.3229 102.001 63.9579 99.4561 64.5599C96.7021 65.2109 93.9771 65.9839 91.2421 66.7159C91.0051 66.7789 90.7771 66.9089 90.5691 67.0449C90.1571 67.3139 90.2371 67.5919 90.6521 67.7289C93.3961 68.6309 96.1281 69.3899 99.0661 68.4699C101.332 67.7609 103.537 66.7779 106.192 66.6939ZM76.8651 43.0869C76.0761 40.5779 75.4091 38.3939 74.7011 36.2219C73.5581 32.7179 71.4321 30.0469 68.0351 28.4759C67.7851 28.3599 67.5301 28.1099 67.2501 28.3639C67.0121 28.5799 67.0611 28.8939 67.1051 29.1769C67.2371 30.0139 67.6341 30.7329 68.1351 31.3999C70.0031 33.8879 71.7481 36.4519 73.2561 39.1799C74.0751 40.6599 75.2071 41.8989 76.8651 43.0869ZM53.7601 24.0339C55.7011 20.7949 58.9021 19.2729 61.5211 17.0969C64.0771 14.9739 66.2511 12.5949 67.9061 9.71889C67.3221 10.1749 66.7991 10.6929 66.2471 11.1789C64.0681 13.0969 61.3081 14.0409 58.8751 15.5419C56.7871 16.8299 55.2261 18.5429 54.0171 20.6089C53.4431 21.5909 53.4231 22.6969 53.7601 24.0339ZM95.9541 27.6829C94.5461 30.8529 93.4971 34.1419 91.2751 36.9409C89.9081 38.6629 89.9671 41.8889 90.9121 43.2599C94.9371 38.8299 95.7261 33.3549 95.9541 27.6829Z" fill="gray"/>
</svg>
