<svg width="133" height="181" viewBox="0 0 133 181" fill="none" xmlns="http://www.w3.org/2000/svg">
<path d="M65.393 44.275C66.774 42.15 68.307 40.505 69.963 38.968C71.66 37.392 73.414 35.97 75.773 35.43C76.986 35.152 77.501 33.971 77.948 32.924C78.805 30.912 79.806 28.992 81.689 27.781C83.737 26.463 86.067 25.845 88.463 25.504C89.387 25.372 90.362 25.451 91.241 25.189C93.85 24.413 96.058 25.438 98.193 26.648C101.06 28.272 103.885 29.96 106.858 31.397C109.443 32.646 111.377 34.783 113.538 36.605C115.435 38.204 117.351 39.739 119.775 40.526C121.338 41.033 122.304 42.319 122.944 43.735C123.593 45.17 122.218 47.355 120.58 47.574C117.84 47.941 115.079 48.159 112.422 49.006C111.499 49.3 110.582 49.587 109.691 49.985C104.385 52.355 98.91 52.826 93.445 50.793C90.652 49.754 88.628 47.573 86.898 45.088C85.24 42.706 83.495 40.351 81.454 38.27C78.875 35.64 75.918 35.243 72.896 37.436C68.577 40.57 65.344 44.482 63.969 49.909C62.688 54.966 61.086 59.958 58.859 64.734C57.852 66.895 56.713 69.019 55.923 71.27C54.857 74.31 55.141 77.398 55.926 80.482C56.286 81.898 57.06 83.107 57.591 84.434C57.814 84.99 58.147 85.003 58.549 84.567C59.971 83.023 61.664 82.214 63.821 82.578C64.626 82.714 65.15 82.07 65.68 81.639C67.496 80.159 69.348 79.489 71.818 80.029C75.378 80.807 78.878 81.699 82.165 83.257C84.467 84.348 86.142 86.29 87.242 88.48C89.069 92.119 90.654 95.893 92.121 99.695C92.94 101.816 92.908 104.219 93.883 106.322C94.545 107.749 95.375 109.099 96.017 110.534C97.194 113.163 96.682 113.824 93.829 113.56C92.459 113.433 91.154 113.065 89.888 112.563C87.043 111.435 84.228 112.168 81.393 112.607C79.828 112.849 78.248 112.82 76.683 112.487C74.699 112.064 72.591 112.492 70.447 111.31C71.305 113.315 72.463 114.695 73.414 116.201C75.622 119.698 77.906 123.192 81.128 125.8C84.588 128.6 87.991 131.452 91.305 134.421C95.694 138.353 99.881 142.463 103.476 147.157C104.525 148.527 105.445 149.971 106.627 151.764C106.553 149.784 106.339 148.17 106.466 146.583C106.69 143.772 105.082 141.627 104.056 139.28C102.293 135.246 101.246 131.181 101.673 126.665C102.077 122.384 103.791 118.832 106.347 115.567C109.291 111.807 111.428 107.58 113.592 103.364C113.888 102.788 114.131 102.19 114.634 101.746C115.489 100.991 116.315 101.189 116.708 102.254C117.458 104.284 117.351 106.362 116.928 108.415C116.276 111.572 116.091 114.726 116.386 117.943C116.695 121.314 116.512 124.716 116.052 128.048C115.581 131.456 113.347 134.03 110.929 136.305C109.165 137.965 108.072 139.86 107.751 142.225C107.287 145.653 107.075 149.063 107.832 152.505C108.563 155.833 110.301 158.612 112.308 161.229C115.08 164.844 117.81 168.559 122.145 170.527C124.737 171.704 127.051 173.327 129.434 174.849C130.502 175.531 131.262 176.523 132.243 177.279C132.485 177.466 132.509 177.739 132.372 177.951C132.196 178.224 131.976 177.989 131.845 177.862C129.184 175.303 125.856 173.815 122.63 172.186C116.787 169.236 112.599 164.706 109.424 159.052C107.766 156.1 106.515 152.937 104.5 150.161C102.427 147.305 100.296 144.52 97.751 142.074C93.996 138.466 90.126 134.986 86.068 131.719C83.977 130.035 81.822 128.434 79.804 126.656C78.795 125.767 77.437 125.452 76.135 125.193C71.06 124.18 65.94 123.551 60.76 123.386C59.564 123.348 58.831 123.677 58.255 124.759C57.778 125.655 57.379 126.565 57.064 127.517C56.666 128.72 56.962 129.749 57.637 130.857C58.944 133.002 60.799 134.542 62.722 136.043C64.55 137.471 65.283 139.597 66.386 141.516C69.892 147.615 69.655 153.895 67.326 160.2C66.042 163.677 63.764 166.649 61.473 169.555C60.041 171.371 58.806 173.317 58.029 175.486C57.486 177.001 57.94 178.618 58.096 180.176C58.178 180.994 57.993 181.043 57.253 180.996C56.387 180.942 55.709 180.66 55.203 180.009C53.211 177.444 50.603 175.471 48.51 173.004C46.269 170.362 44.387 167.521 43.257 164.203C42.728 162.648 41.97 161.17 41.313 159.659C39.695 155.941 39.728 152.158 40.739 148.29C41.253 146.323 41.32 144.262 41.92 142.296C43.158 138.244 46.179 135.76 49.504 133.551C50.877 132.639 52.37 131.911 53.765 131.03C55.108 130.182 56.107 129.073 56.35 127.39C56.554 125.98 57.468 124.854 58.253 123.443C55.621 123.743 53.153 123.893 50.707 123.719C45.66 123.361 40.475 124.287 35.594 122.314C30.915 120.422 25.941 119.305 21.445 116.943C18.661 115.481 16.561 113.242 14.778 110.714C12.943 108.113 11.112 105.501 9.456 102.785C7.369 99.361 6.151 95.567 5.189 91.688C4.705 89.739 4.147 87.808 3.622 85.869C3.556 85.626 3.442 85.388 3.425 85.143C3.364 84.229 3.008 83.073 4.013 82.606C4.908 82.19 5.307 83.309 5.794 83.856C8.003 86.337 10.343 88.623 13.411 90.063C14.959 90.79 16.619 91.088 18.235 91.546C22.342 92.71 26.19 94.628 30.293 95.763C33.899 96.761 36.924 98.574 39.514 101.215C40.819 102.545 41.471 104.283 42.45 105.816C43.956 108.172 44.39 110.809 44.309 113.544C44.197 117.329 46.051 119.991 49.037 122.034C49.21 122.153 49.416 122.261 49.62 122.292C52.032 122.665 54.432 122.795 56.888 122.541C60.604 122.157 64.32 122.134 68.029 122.96C71.297 123.687 74.627 124.135 78.076 124.731C77.117 122.909 75.831 121.506 74.711 120C72.759 117.374 71.246 114.479 69.436 111.77C69.278 111.533 69.197 111.296 68.88 111.175C63.297 109.045 61.238 104.621 61.047 99.022C60.996 97.532 60.673 96.033 61.306 94.548C61.554 93.966 60.978 93.411 60.672 92.904C58.758 89.732 57.145 86.41 55.802 82.965C54.413 79.403 54.043 75.651 54.022 71.862C54.014 70.52 53.916 69.201 53.509 67.925C52.756 65.563 53.059 63.066 52.586 60.686C51.908 57.275 49.741 54.96 46.937 52.923C43.523 50.443 39.871 50.962 36.183 51.309C33.229 51.587 30.307 52.335 27.354 52.45C22.683 52.632 18.494 51.04 14.765 48.205C13.92 47.563 13.319 46.86 13.103 45.809C12.768 44.175 13.26 43.115 14.89 43.049C18.831 42.891 22.422 41.422 26.133 40.397C27.887 39.912 29.66 39.798 31.44 40.105C33.733 40.501 36.105 40.535 38.308 41.346C41.324 42.456 43.718 44.139 44.444 47.631C44.916 49.903 46.104 51.791 48.337 52.999C50.134 53.971 51.298 55.722 52.331 57.663C52.738 55.927 52.946 54.372 52.864 52.732C52.551 46.51 52.057 40.319 50.206 34.331C49.738 32.819 49.484 31.181 48.24 29.979C47.509 29.272 46.585 28.907 45.706 28.609C43.146 27.741 40.628 26.682 37.764 27.15C36.037 27.432 34.286 27.623 32.546 27.861C30.11 28.195 27.825 27.515 25.593 26.514C21.497 24.678 17.731 22.474 14.86 18.868C13.31 16.921 11.506 15.14 9.559 13.558C7.451 11.846 4.839 11.239 2.32 10.435C1.554 10.192 0.852 9.76704 0 9.36804C4.007 8.09504 6.733 4.90504 10.597 3.62804C12.83 2.89004 14.772 1.29804 17.168 0.766038C23.079 -0.546961 28.795 -0.416962 33.993 3.11904C36.253 4.65704 38.088 6.70904 40.05 8.60504C42.356 10.833 44.512 13.185 46.243 15.887C47.545 17.92 48.342 20.122 48.774 22.555C49.648 27.48 50.468 32.418 51.805 37.262C53.068 41.838 53.371 46.583 53.624 51.32C53.768 54.019 53.613 56.693 53.427 59.379C53.312 61.033 53.555 62.687 53.925 64.301C54.369 66.233 54.646 68.184 54.793 70.158C54.811 70.402 54.755 70.667 55.079 70.883C56.39 68.896 57.073 66.62 58.05 64.487C60.452 59.242 62.04 53.724 63.544 48.172C63.984 46.548 64.498 44.993 64.56 43.269C64.655 40.581 63.579 38.361 62.374 36.088C61.33 34.117 59.948 32.239 59.891 29.862C59.837 27.596 60.148 25.353 60.347 23.103C60.538 20.955 61.014 18.871 61.568 16.792C61.894 15.569 62.418 14.429 62.969 13.324C64.346 10.568 64.503 7.60004 64.73 4.63204C64.793 3.81104 64.83 2.98804 64.853 2.16504C64.874 1.41204 65.294 1.41604 65.779 1.69304C68.216 3.08504 70.186 4.88904 71.047 7.68304C71.374 8.74504 71.798 9.77704 72.176 10.824C73.446 14.347 73.055 17.745 71.349 21.018C69.8 23.989 68.937 27.238 67.579 30.273C65.62 34.649 65.105 39.194 65.393 44.275ZM55.502 179.186C56.005 179.472 56.383 180.458 57.09 180.087C57.619 179.809 57.127 178.985 57.088 178.402C56.958 176.499 57.196 174.655 58.218 173.007C60.127 169.931 62.472 167.161 64.423 164.101C66.584 160.711 67.782 157.1 68.135 153.132C68.676 147.053 66.351 141.993 62.645 137.421C60.866 135.226 58.362 133.673 56.932 131.175C56.299 130.069 55.873 130.218 54.994 130.94C52.64 132.871 49.738 133.954 47.361 135.941C45.397 137.581 43.854 139.363 42.872 141.687C41.807 144.208 41.958 146.981 41.217 149.566C40.408 152.388 40.573 155.156 41.415 157.946C42.102 160.224 43.26 162.296 44.092 164.509C44.812 166.423 45.9 168.15 46.996 169.873C49.276 173.456 52.847 175.848 55.502 179.186ZM66.259 81.976C65.763 82.521 65.128 82.676 65.536 83.554C66.869 86.424 66.472 89 64.312 91.469C62.74 93.266 61.545 95.389 61.629 97.974C61.732 101.16 62.904 103.989 64.551 106.625C65.679 108.429 67.13 109.987 69.325 110.506C70.855 110.867 72.405 111.174 73.963 111.379C76.582 111.724 79.224 112.411 81.859 111.745C84.942 110.966 87.938 111.037 90.942 112.044C91.754 112.316 92.6 112.517 93.446 112.652C95.525 112.985 95.834 112.595 95.096 110.657C94.905 110.156 94.718 109.649 94.471 109.175C93.081 106.497 91.82 103.783 91.512 100.719C91.341 99.019 90.578 97.502 89.854 95.978C88.965 94.104 88.113 92.213 87.272 90.317C85.993 87.434 84.261 84.949 81.269 83.628C78.106 82.231 74.804 81.352 71.392 80.715C69.261 80.317 67.692 80.933 66.259 81.976ZM47.762 122.503C45.111 120.867 43.916 118.496 43.662 115.594C43.581 114.666 43.563 113.732 43.506 112.802C43.236 108.362 41.52 104.563 38.488 101.321C36.424 99.113 33.974 97.663 31.049 96.81C26.031 95.347 21.259 93.154 16.114 92.003C12.422 91.178 9.178 89.285 6.824 86.144C6.244 85.37 5.583 84.654 4.934 83.935C4.734 83.714 4.538 83.283 4.197 83.447C3.883 83.598 3.98 84.031 4.052 84.341C4.312 85.456 4.596 86.566 4.872 87.677C6.25 93.239 7.644 98.769 10.787 103.71C13.283 107.634 16.108 111.257 19.451 114.468C20.342 115.324 21.453 115.944 22.603 116.492C26.785 118.485 31.158 119.986 35.509 121.531C39.418 122.92 43.462 123.334 47.762 122.503ZM2.504 9.36704C3.091 9.60204 3.437 9.80404 3.81 9.87904C7.678 10.657 10.313 13.282 13.089 15.812C15.655 18.151 17.527 21.18 20.83 22.826C23.871 24.342 26.626 26.505 30.198 26.55C32.259 26.576 34.334 26.374 36.385 26.13C37.541 25.993 38.653 25.942 39.806 26.124C42.685 26.578 45.421 27.458 48.236 28.903C47.534 27.589 46.959 26.513 46.384 25.436C47.975 26.218 48.262 27.934 49.358 29.242C49.233 28.319 49.207 27.492 49 26.713C48.267 23.95 48.227 21.023 46.904 18.394C44.61 13.837 40.926 10.463 37.391 6.94804C34.807 4.37804 31.956 2.26704 28.337 1.39804C27.059 1.09104 25.834 0.393039 24.458 0.762039C22.632 1.25204 20.756 1.22804 18.896 1.33404C16.69 1.46104 14.606 2.03004 12.861 3.35804C11.157 4.65504 9.332 5.67204 7.42 6.60204C5.793 7.39304 4.257 8.37004 2.504 9.36704ZM77.749 35.227C80.282 35.226 81.893 36.582 83.335 38.267C84.952 40.156 86.084 42.363 87.395 44.447C89.58 47.919 92.687 50.03 96.602 50.977C99.338 51.638 102.101 51.34 104.831 50.819C106.849 50.434 108.745 49.669 110.615 48.829C113.444 47.558 116.487 47.239 119.515 46.832C120.526 46.696 121.647 46.527 122.057 45.348C122.49 44.103 121.871 43.104 121.1 42.218C120.605 41.649 119.966 41.229 119.239 40.969C117.393 40.31 115.767 39.278 114.26 38.037C111.141 35.469 108.299 32.56 104.422 30.986C102.382 30.158 100.557 28.807 98.622 27.714C96.222 26.359 93.757 25.553 90.876 25.782C84.593 26.28 80.48 29.598 77.749 35.227ZM106.729 143.035C106.395 139.615 108.304 137.294 110.546 135.198C114.151 131.83 116.118 128.027 115.555 122.808C115.015 117.8 115.229 112.708 116.308 107.712C116.667 106.051 116.672 104.36 116.111 102.716C116.013 102.428 116.012 102.045 115.597 101.969C115.15 101.887 114.959 102.233 114.749 102.512C114.58 102.737 114.447 102.992 114.319 103.245C112.075 107.652 109.801 112.041 106.761 115.974C104.376 119.06 102.86 122.397 102.351 126.384C101.556 132.611 104.148 137.758 106.729 143.035ZM44.931 50.82C44.215 49.442 43.855 48.17 43.544 46.883C43.236 45.607 42.447 44.69 41.477 43.834C39.619 42.195 37.319 41.878 35.033 41.402C31.253 40.614 27.433 40.214 23.801 41.689C21.086 42.792 18.325 43.303 15.467 43.57C14.735 43.639 13.893 43.692 13.664 44.478C13.438 45.254 13.803 46.016 14.411 46.602C18.539 50.582 23.573 52.111 29.125 51.393C31.6 51.073 34.089 50.802 36.568 50.546C39.257 50.267 41.994 49.88 44.931 50.82ZM64.246 37.944C64.405 35.565 65.509 33.578 66.335 31.464C67.925 27.393 69.504 23.322 71.259 19.318C71.599 18.543 71.781 17.683 71.93 16.843C72.509 13.586 71.414 10.634 70.297 7.65504C69.413 5.29904 67.686 3.81904 65.604 2.32804C65.54 3.04704 65.505 3.57404 65.446 4.10004C65.116 7.03304 65.251 10.025 63.856 12.798C63.158 14.186 62.585 15.664 62.132 17.182C61.296 19.986 61.065 22.878 60.76 25.754C60.55 27.726 60.152 29.768 61.053 31.673C62.054 33.793 63.176 35.856 64.246 37.944ZM64.788 83.965C64.65 83.838 64.555 83.726 64.438 83.649C62.972 82.688 59.138 83.893 58.452 85.539C58.394 85.679 58.424 85.902 58.498 86.042C59.601 88.128 60.726 90.202 61.828 92.289C62.16 92.917 62.46 92.798 62.776 92.304C63.586 91.039 64.481 89.818 65.171 88.49C65.977 86.94 65.331 85.422 64.788 83.965Z" fill="gray"/>
</svg>
