<svg width="88" height="131" viewBox="0 0 88 131" fill="brown" xmlns="http://www.w3.org/2000/svg">
<path d="M80.4272 57.1102C81.2082 57.5952 82.1062 57.9792 83.0232 58.3502C84.5232 58.9582 85.5472 59.9022 84.4142 61.9962C82.7232 65.1182 80.9242 68.1842 78.7802 71.0312C76.1992 74.4592 72.5022 74.9842 68.5862 75.1012C63.7992 75.2442 59.4882 73.6982 55.3262 71.5682C53.5012 70.6332 51.7912 71.1082 50.2622 72.0972C47.8142 73.6792 46.1572 76.0772 44.3262 78.2912C42.7772 80.1642 41.1312 81.9582 39.4852 83.7472C39.1822 84.0762 39.0522 84.3682 39.0732 84.7802C39.2362 88.0142 38.3922 91.1982 38.7122 94.4622C38.8832 96.2022 37.5972 97.6832 37.0062 99.2952C35.9532 102.168 35.6232 105.216 34.5472 108.449C37.7842 106.648 40.7762 105.146 42.8322 102.361C43.0952 102.004 43.3122 101.485 43.2832 101.06C43.0272 97.3432 45.2972 94.9362 47.5932 92.5192C49.6052 90.4012 52.0832 90.2522 54.7532 90.6662C57.4092 91.0782 60.0872 91.3522 62.7392 91.7822C64.7872 92.1152 66.7972 92.6582 68.8922 92.7232C69.4792 92.7412 70.0752 93.0152 70.6362 93.2472C72.5422 94.0332 73.2382 95.6912 72.4542 97.5482C71.9852 98.6582 71.2992 99.5862 70.2872 100.299C68.6252 101.47 67.4252 103.114 66.1102 104.628C63.1322 108.054 59.5172 110.074 54.8712 110.031C51.1302 109.996 48.5132 108.138 46.6112 105.077C46.1372 104.315 45.7292 103.512 45.0992 102.857C44.5582 102.295 44.0142 102.173 43.5012 102.877C42.2732 104.561 40.6262 105.767 38.9352 106.929C37.7582 107.738 36.4302 108.269 35.2622 109.134C34.4082 109.767 33.8502 110.432 33.4022 111.354C30.8312 116.642 27.1122 121.024 22.6472 124.804C21.6882 125.616 20.8102 126.508 19.9272 127.404C18.7282 128.621 17.5012 129.872 15.5832 130.052C15.4912 129.487 16.0032 129.336 16.3322 129.062C20.5562 125.542 24.8142 122.063 28.2572 117.717C31.5992 113.499 33.8522 108.784 34.8422 103.487C35.2142 101.494 35.9112 99.5922 36.6852 97.7522C37.1452 96.6592 36.9172 95.8822 36.3942 95.0732C35.6502 93.9222 34.7182 92.9292 33.5932 92.1162C31.7492 90.7832 29.8542 91.2392 27.9302 91.8592C25.3452 92.6912 22.9612 94.2012 20.1812 94.3552C18.4872 94.4492 16.8502 95.1272 15.0872 94.6402C13.0342 94.0732 11.6222 92.5362 9.87624 91.5172C7.03924 89.8612 4.75823 87.3292 1.52023 86.2942C0.735235 86.0432 0.0372348 85.4672 0.00323477 84.5172C-0.0477652 83.0802 0.502235 81.8632 1.79923 81.2002C5.44523 79.3372 8.94923 77.2282 12.4852 75.1722C14.0382 74.2692 15.8212 74.4032 17.4142 74.8812C20.0542 75.6732 22.6382 76.6852 25.1812 77.7602C29.7962 79.7102 32.0812 83.3562 32.5302 88.2682C32.6612 89.7012 33.1592 90.9642 34.4022 91.8572C35.6002 92.7182 36.3502 94.0102 37.2932 95.1982C37.7252 94.5742 37.7572 93.9852 37.7542 93.3722C37.7372 90.2142 37.5032 87.0392 38.2332 83.9252C38.6752 82.0422 39.1282 80.1522 39.7442 78.3222C41.0402 74.4772 41.0622 70.8302 38.6862 67.3302C37.3092 65.3022 36.5752 62.9312 35.5322 60.7252C35.0482 59.7032 34.4112 58.8312 33.5082 58.2892C32.0382 57.4072 30.5432 56.5522 28.9362 55.9012C24.7792 54.2182 21.1232 51.8492 18.4492 48.1332C16.9972 46.1162 16.8602 43.6172 15.8382 41.4502C15.7232 41.2072 15.8062 40.9092 15.4792 40.7232C13.0512 39.3432 11.4822 37.0392 9.53424 35.1422C8.28724 33.9282 6.74423 33.1242 5.40323 32.0422C3.47423 30.4842 3.00923 29.4262 3.82123 27.4492C4.45823 25.8992 5.91623 25.1992 7.41723 24.5922C10.8812 23.1912 14.4492 23.0762 18.0992 23.4892C18.9722 23.5882 19.8952 23.4522 20.7692 23.2852C23.5142 22.7602 26.2022 23.3562 28.8852 23.7102C30.2842 23.8952 31.4172 24.8702 32.4562 25.8212C34.7262 27.8982 37.3192 29.6262 39.0712 32.2632C40.2782 34.0802 41.0552 35.9942 41.1772 38.1672C41.2482 39.4392 41.7202 40.5572 42.5612 41.4772C44.3232 43.4052 45.5312 45.5922 45.9572 48.1892C46.0132 48.5302 46.1452 48.8592 46.2652 49.2712C46.9442 48.6522 47.1682 47.8782 47.3812 47.1442C48.1262 44.5772 49.2902 42.1752 50.4902 39.8242C51.9732 36.9172 53.7562 34.1222 56.2972 31.9962C58.6712 30.0092 59.0002 27.6562 58.2592 24.8392C57.6662 22.5872 57.4522 20.2582 57.6612 17.9202C57.7952 16.4212 58.8082 15.3042 59.5132 14.0732C60.8182 11.7932 62.3832 9.67323 64.1342 7.72223C65.2612 6.46623 66.7312 5.51723 68.3282 4.99023C72.0312 3.76923 75.8352 2.85523 79.2222 0.790228C80.1952 0.197228 81.4162 0.139228 82.5492 0.014228C83.8442 -0.128772 84.4172 0.829228 84.7452 1.85023C85.9312 5.53523 85.8572 9.30723 85.0042 13.0092C84.5282 15.0762 84.6882 17.2482 83.8302 19.2342C82.1192 23.1922 79.4372 26.0382 75.2912 27.6352C72.0962 28.8652 68.8622 29.1932 65.5902 28.8012C61.6202 28.3262 59.0412 30.0972 56.4842 32.8852C52.5112 37.2182 50.1982 42.3682 48.1482 47.7062C47.2022 50.1682 45.3272 51.9942 44.0232 54.2072C43.0892 55.7922 42.7382 57.5532 42.1412 59.2392C41.8902 59.9472 42.3092 59.9442 42.8202 59.7572C44.7632 59.0492 46.1192 57.5172 47.6952 56.2942C49.3242 55.0302 51.0242 53.9142 53.1682 53.7882C53.5902 53.7632 53.7702 53.5152 54.0112 53.2292C55.1152 51.9122 55.5952 50.2492 56.4852 48.8242C58.3662 45.8132 61.2762 44.1712 64.5422 43.0762C67.1242 42.2112 69.8312 41.8362 72.4552 41.1142C74.3082 40.6042 76.0072 41.6592 77.6702 42.3952C80.3442 43.5772 82.8322 45.1572 85.6622 46.0132C87.0702 46.4392 87.7792 48.3262 86.8982 49.4702C84.8742 52.1002 82.8702 54.7612 80.4272 57.1102ZM84.8382 7.13723C84.8122 5.26323 84.5492 3.46323 83.9002 1.66423C83.4952 0.542228 82.8672 0.468228 82.0402 0.620228C80.4152 0.918228 78.8302 1.39023 77.4182 2.29123C75.8842 3.26923 74.1672 3.76723 72.4482 4.28123C70.5302 4.85523 68.5592 5.25523 66.8222 6.36523C63.7352 8.33723 61.9362 11.3542 60.1642 14.3942C59.3762 15.7452 58.4022 17.0432 58.4532 18.7342C58.4862 19.8102 58.4862 20.8882 58.5482 21.9632C58.6752 24.1812 59.5532 26.3062 59.3612 28.5712C59.3062 29.2192 59.7362 28.8832 59.9962 28.7682C61.6242 28.0472 63.3582 28.0102 65.0752 28.0952C68.9542 28.2862 72.7562 28.0412 76.2122 26.0832C80.5952 23.5992 83.7022 20.1962 83.8312 14.8012C83.8442 14.2692 83.9782 13.7362 84.0962 13.2132C84.5462 11.2102 84.8502 9.19223 84.8382 7.13723ZM40.9272 40.3532C40.6162 39.0412 40.2662 37.9072 40.0912 36.7462C39.8132 34.9032 39.0082 33.3382 37.8402 31.9302C35.8862 29.5742 33.5232 27.6472 31.2132 25.6682C30.5022 25.0592 29.7102 24.4752 28.7762 24.3492C26.0462 23.9812 23.3272 23.3562 20.5362 23.8612C19.7322 24.0072 18.8852 24.1042 18.0792 24.0202C13.9802 23.5922 9.99623 23.7842 6.25123 25.7632C4.99623 26.4272 4.23923 27.4232 4.17923 28.8002C4.12123 30.1192 5.00623 31.1092 6.06923 31.5942C8.50123 32.7032 10.4522 34.3552 12.0272 36.4362C14.2542 39.3792 17.3282 40.7382 20.8212 40.9672C25.3002 41.2612 29.8082 41.1532 34.2102 40.0972C36.4662 39.5572 38.6502 39.3082 40.9272 40.3532ZM68.1442 74.4232C73.1982 74.2072 76.6332 72.4292 78.8232 69.0002C80.1992 66.8452 81.6892 64.7872 83.2472 62.7692C83.6952 62.1882 83.9822 61.5342 84.1782 60.8402C84.3922 60.0852 84.1322 59.4482 83.4572 59.1042C82.4402 58.5852 81.4122 58.0122 80.3202 57.7312C77.1852 56.9262 74.2182 55.5302 70.9042 55.3222C68.2652 55.1562 65.6172 54.9812 63.2002 56.0902C61.1732 57.0212 59.3172 58.3462 57.4482 59.5912C55.4912 60.8962 54.0682 62.6492 53.3142 64.9302C52.8352 66.3812 52.7142 67.8682 52.5592 69.3672C52.4902 70.0372 52.6622 70.1592 53.2722 70.1452C54.3822 70.1192 55.5352 70.0892 56.4712 70.8142C60.1572 73.6712 64.5072 74.1772 68.1442 74.4232ZM15.1682 75.2612C14.3012 75.2372 13.4712 75.2122 12.6702 75.7012C9.21323 77.8132 5.74223 79.9002 2.11023 81.7082C1.27523 82.1242 0.717235 82.9182 0.792235 83.9032C0.866235 84.8832 1.66223 85.4012 2.47223 85.6822C5.32223 86.6732 7.51223 88.6872 9.84623 90.4392C12.9632 92.7802 16.1112 94.6222 20.2312 93.4882C21.5562 93.1232 23.0222 93.0542 24.2562 92.5792C25.8882 91.9502 27.5082 91.3302 29.1872 90.8232C30.1922 90.5202 31.7162 90.9022 32.0782 90.3092C32.4792 89.6502 31.7972 88.3642 31.6662 87.3422C31.2112 83.7902 29.3862 81.1412 26.4292 79.2032C24.2072 77.7462 21.5852 77.2442 19.2152 76.1402C17.9292 75.5422 16.6022 75.1332 15.1682 75.2612ZM52.6022 91.0342C51.6122 91.0482 50.6162 91.1052 49.7912 91.6702C47.2122 93.4362 45.2192 95.7232 44.2042 98.7052C43.8972 99.6082 43.5262 100.809 44.6482 101.529C45.3392 101.973 45.8482 102.521 46.2812 103.184C47.8422 105.576 49.8032 107.503 52.5062 108.582C53.8062 109.101 55.0612 109.582 56.5462 109.227C59.4212 108.539 61.8042 107.073 63.9612 105.101C66.2322 103.024 68.1962 100.637 70.6172 98.7042C71.4962 98.0032 72.4632 96.9462 72.1682 95.7042C71.8062 94.1802 70.4132 93.6532 68.9692 93.4002C68.7572 93.3632 68.5452 93.3082 68.3322 93.2972C66.5342 93.2072 64.7902 92.7942 63.0412 92.4122C59.5982 91.6592 56.0812 91.4862 52.6022 91.0342ZM73.2822 41.6172C73.1572 41.6352 72.8302 41.6482 72.5212 41.7302C70.3752 42.2952 68.2232 42.8422 66.0922 43.4592C64.1362 44.0252 62.0792 44.4312 60.4912 45.8172C58.2602 47.7642 56.8492 50.3082 55.5922 52.9422C55.4392 53.2632 55.2432 53.7162 55.5302 53.9512C56.7042 54.9152 57.9542 55.7862 59.1332 56.7442C59.5972 57.1212 59.8282 57.0052 60.2902 56.6912C62.4782 55.2042 64.8072 54.0362 67.5582 54.1012C71.3292 54.1912 74.8802 55.4222 78.4502 56.4102C79.8322 56.7932 80.5152 56.4122 81.1352 55.5222C82.5162 53.5382 84.2532 51.8642 85.7682 49.9992C87.1402 48.3092 86.8172 47.0482 84.7112 46.3032C83.6002 45.9102 82.4482 45.6062 81.4472 44.9382C79.7682 43.8182 77.8272 43.2242 76.0522 42.2902C75.2732 41.8792 74.3982 41.6042 73.2822 41.6172ZM35.1172 58.7742C34.5312 55.4662 35.9182 52.8032 36.4652 49.9812C36.9982 47.2322 37.2352 44.4512 36.4552 41.6552C36.1232 40.4632 35.6262 40.3802 34.5762 40.6742C31.4302 41.5552 28.2002 41.9532 24.9462 42.2502C22.1992 42.5012 19.5702 41.7312 16.8762 41.4942C17.2352 42.9272 17.5562 44.2812 17.9192 45.6252C18.1352 46.4272 18.4762 47.1922 19.0292 47.8182C21.4242 50.5252 24.0992 52.8572 27.4042 54.4472C29.9392 55.6672 32.6672 56.5622 35.1172 58.7742ZM39.8462 81.6792C41.7802 80.5142 42.9542 78.8552 44.1832 77.2382C45.8712 75.0182 47.3752 72.6002 49.8682 71.1552C50.6562 70.6992 51.0372 70.0782 51.3862 69.3092C51.9492 68.0682 51.7592 66.6592 52.2272 65.4452C53.2272 62.8482 54.5612 60.4382 57.0632 58.9172C57.6122 58.5832 58.4332 58.2232 58.5342 57.7482C58.6572 57.1712 57.6762 56.9862 57.2562 56.5382C57.0352 56.3032 56.8282 56.0342 56.5602 55.8692C55.2472 55.0582 53.9062 54.1592 52.2712 54.6162C50.8602 55.0112 49.4972 55.5842 48.3642 56.5802C46.8542 57.9072 45.5102 59.5672 43.7742 60.4572C41.6022 61.5712 41.1752 63.0992 41.3972 65.2122C41.4982 66.1742 41.3912 67.1562 41.4742 68.1212C41.7222 71.0132 42.1902 73.8992 41.2012 76.7602C40.6662 78.3102 40.1642 79.8762 39.8462 81.6792ZM40.5182 68.9092C40.5042 68.6752 40.5072 68.4392 40.4742 68.2082C39.8392 63.8272 40.5082 59.6192 42.3372 55.6262C43.0942 53.9722 44.1742 52.4662 45.1012 50.8892C45.3112 50.5322 45.7562 50.2552 45.5872 49.7532C44.9062 47.7292 44.7392 45.5342 43.4402 43.7152C41.9542 41.6352 40.1062 40.2872 37.4332 40.3342C36.8462 40.3442 36.5882 40.3832 36.8212 41.1022C37.2572 42.4522 37.6962 43.7862 37.6262 45.2782C37.4412 49.2052 36.7272 53.0472 36.0252 56.8962C35.8452 57.8862 35.7432 58.9192 36.0202 59.8852C36.9602 63.1512 39.0512 65.8652 40.5182 68.9092Z" fill="gray"/>
</svg>
