<svg width="862" height="468" viewBox="0 0 862 468" fill="none" xmlns="http://www.w3.org/2000/svg">
<path d="M859.669 80.232C857.447 78.295 854.879 78.992 852.478 80.158C850.819 80.963 849.288 81.973 847.946 83.258C844.951 86.126 841.937 88.975 838.942 91.843C830.991 99.457 822.77 106.874 817.305 116.614C813.796 122.869 809.879 128.849 805.676 134.619C799.045 143.722 790.25 150.078 779.327 154.044C779.614 153.205 779.783 152.622 780.009 152.063C782.127 146.815 784.421 141.631 786.347 136.314C791.645 121.688 797.064 107.114 801.133 92.056C803.512 83.251 807.043 74.763 809.858 66.068C812.72 57.23 815.016 48.244 813.981 38.821C813.049 30.338 811.847 21.886 810.9 13.404C810.508 9.89801 810.009 6.44201 808.818 3.11401C808.201 1.38901 806.948 0.275007 805.158 0.0290071C803.431 -0.207993 802.325 0.989007 801.489 2.27801C799.911 4.70701 798.858 7.42001 798.468 10.257C797.231 19.246 796.113 28.253 795.066 37.267C794.514 42.023 794.158 46.85 794.797 51.59C795.776 58.847 797.168 66.048 798.42 73.267C799.634 80.263 800.659 87.157 798.529 94.271C794.759 106.862 790.932 119.425 786.225 131.701C781.149 144.94 775.735 158.043 769.662 170.856C767.396 175.638 765.475 180.619 762.506 185.204C761.575 183.863 761.24 182.549 760.921 181.234C759.331 174.68 759.958 168.103 760.609 161.502C761.736 150.069 764.921 139.004 766.456 127.633C768.273 114.171 768.27 100.909 764.239 87.821C763.649 85.905 762.922 84.027 761.568 82.524C759.567 80.302 755.877 80.919 754.894 83.714C753.22 88.473 752.216 93.367 752.597 98.471C752.934 102.993 753.571 107.533 753.421 112.044C753.089 122.038 754.73 131.698 757.335 141.271C758.168 144.333 759.116 147.435 759.361 150.569C759.707 154.989 759.357 159.444 758.858 163.877C758.082 170.778 757.691 177.698 760.223 184.372C760.842 186.003 761.384 187.53 760.264 189.053C755.193 195.952 751.869 204.038 743.699 208.699C737.203 212.405 732.957 219.012 728.384 224.964C727.029 226.728 726.16 228.905 723.921 230.623C724.712 224.361 723.735 218.536 724.381 212.731C724.442 212.18 724.509 211.62 724.666 211.091C726.503 204.904 729.368 199.123 732.069 193.309C737.052 182.584 740.202 171.709 737.269 159.782C736.775 157.773 736.132 156.113 734.084 155.399C731.832 154.613 730.111 155.523 728.516 157.128C725.937 159.724 725.038 163.151 723.62 166.344C720.21 174.027 718.552 182.049 719.827 190.367C721.46 201.027 722.278 211.738 722.5 222.488C722.633 228.954 721.925 235.225 718.382 241.118C714.987 246.766 711.907 252.419 707.366 257.408C701.118 264.274 694.707 270.861 687.467 276.66C686.163 277.705 685.943 277.132 685.761 275.917C685.362 273.246 686.07 270.67 686.46 268.081C687.494 261.216 686.413 254.412 686.042 247.586C685.656 240.497 685.048 233.446 681.916 226.912C680.304 223.549 678.721 220.164 676.914 216.906C672.168 208.351 665.965 201.051 657.868 195.457C656.245 194.336 654.312 193.951 652.434 193.835C648.889 193.616 646.988 195.351 647.49 198.405C648.763 206.147 651.985 212.959 657.707 218.465C663.381 223.926 670.247 227.785 676.515 232.449C679.403 234.598 681.636 237.164 682.747 240.702C684.955 247.732 684.93 254.973 685.148 262.216C685.298 267.195 683.336 272.033 684.158 276.993C684.47 278.879 683.894 279.807 682.531 280.882C674.324 287.353 666.109 293.79 658.594 301.12C653.476 306.112 648.544 311.387 642.589 315.477C639.714 317.452 636.826 319.409 633.944 321.374C636.113 315.586 637.698 309.828 640.77 304.626C644.242 298.746 647.775 292.833 649.42 286.067C652.584 273.054 653.949 259.999 650.343 246.838C649.561 243.982 648.093 241.543 645.208 240.306C643.161 239.428 641.631 239.867 640.921 242.163C640.171 244.588 639.502 247.044 638.625 249.422C635.182 258.764 633.673 268.226 636.551 278.019C638.078 283.214 639.753 288.371 641.062 293.62C641.856 296.802 641.818 299.975 639.97 303.084C637.948 306.486 636.038 309.989 635.002 313.908C633.233 320.598 629.153 325.458 623.14 328.961C618.968 331.391 614.819 333.86 610.681 336.347C605.812 336.917 600.96 337.64 596.136 338.636C591.225 339.649 586.576 339.422 582.62 335.987C579.677 333.432 576.887 330.699 574.065 328.008C568.138 322.358 561.62 317.783 553.364 316.203C547.608 315.101 542.139 313.233 537.342 309.738C536.975 309.471 536.658 309.329 536.286 309.622C535.675 310.104 535.994 310.609 536.297 311.091C538.899 315.209 540.758 319.791 543.795 323.62C548.005 328.927 552.942 333.318 559.559 335.556C564.029 337.068 568.581 338.177 573.196 339.069C576.232 339.656 579.289 340.138 582.337 340.667C581.76 341.199 581.236 341.413 580.698 341.457C567.201 342.555 554.162 345.935 541.095 349.243C536.493 350.408 532.121 352.588 527.222 352.532C519.818 352.448 512.985 349.851 506.115 347.579C499.492 345.389 495.898 340.334 495.263 333.561C494.865 329.311 495.347 324.964 495.592 320.67C496.116 311.498 493.261 303.724 486.291 297.607C485.837 297.209 485.021 295.865 484.528 297.19C483.033 301.206 480.468 305.047 480.562 309.399C480.797 320.287 484.354 330.024 491.944 338.068C493.694 339.923 495.517 341.708 497.307 343.525C493.174 341.965 489.146 340.529 485.048 339.22C479.597 337.478 473.846 336.526 468.807 333.635C461.826 329.629 455.156 325.052 447.673 321.969C443.486 320.244 441.526 316.508 439.473 312.949C438.451 311.178 438.847 309.285 440.29 307.429C443.606 303.162 446.706 298.73 448.55 293.538C451.002 286.632 451.334 279.683 449.378 272.633C448.318 268.812 445.423 265.654 445.315 261.472C445.306 261.126 445.023 260.69 444.521 260.752C444.04 260.811 443.97 261.242 443.845 261.624C442.324 266.281 439.614 270.374 437.575 274.788C434.705 281.001 432.414 287.434 432.242 294.268C432.059 301.516 434.326 308.257 438.429 314.311C439.2 315.448 440.147 316.502 440.568 318.102C437.808 317.566 435.54 316.577 433.373 315.405C419.665 307.986 410.41 297.023 405.331 282.103C402.745 274.507 398.115 267.744 391.459 262.717C385.287 258.055 378.112 256.024 370.7 254.569C369.882 254.408 368.905 253.896 368.273 254.79C367.727 255.561 368.03 256.441 368.392 257.296C371.038 263.542 373.803 269.739 377.175 275.627C382.751 285.362 390.312 292.644 401.537 295.7C405.194 296.696 409.322 296.924 412.195 300.075C414.343 302.431 416.623 304.665 418.828 306.97C421.882 310.163 425.426 312.759 429.776 315.455C428.661 315.419 428.343 315.446 428.039 315.394C415.608 313.277 403.691 313.651 393.4 322.316C390.987 324.348 388.18 325.67 385.042 326.241C384.407 326.357 383.441 325.988 383.286 327.026C383.133 328.051 384.013 328.356 384.744 328.659C391.114 331.293 397.731 332.56 404.61 331.813C411.647 331.049 416.94 326.943 421.916 322.329C426.179 318.376 430.87 316.321 436.643 319.01C442.711 321.836 448.807 324.603 454.86 327.462C460.99 330.358 466.303 334.752 472.693 337.189C475.731 338.347 478.732 339.608 481.63 341.331C481.348 341.484 481.16 341.654 480.949 341.691C474.07 342.889 467.401 344.735 461.328 348.291C455.386 351.771 449.712 351.908 443.594 348.274C439.031 345.564 433.997 343.623 428.331 344.273C422.751 344.914 417.521 346.962 412.034 347.923C411.256 348.059 410.221 348.099 410.254 349.122C410.291 350.27 411.442 349.97 412.151 350.048C415.896 350.46 419.468 351.484 423.063 352.598C427.141 353.861 431.121 355.712 435.566 355.513C438.613 355.377 441.665 355.347 445.185 355.258C441.671 357.896 437.503 358.918 435.124 361.989C430.903 367.439 425.682 368.021 419.445 366.938C414.603 366.098 409.562 366.551 404.736 365.34C398.231 363.708 391.593 362.816 384.997 361.691C381.21 361.045 377.434 360.478 374.444 357.731C370.669 354.263 370.671 349.508 370.662 345.067C370.643 335.753 368.957 327.155 362.5 320.012C359.051 316.196 355.25 312.831 350.544 310.632C349.012 309.916 347.668 310.41 348.151 312.166C349.491 317.03 349.344 322.248 351.022 326.911C354.569 336.766 359.015 346.21 367.261 353.286C368.983 354.764 370.942 356.231 372.09 359.1C365.551 356.846 359.785 354.253 354.297 351.021C347.06 346.759 340.728 341.197 333.66 336.688C329.866 334.268 326.839 330.915 323.918 327.575C319.325 322.324 319.493 315.898 320.07 309.416C321.35 295.039 318.637 282.053 306.741 272.403C306.226 271.985 305.962 270.941 305.092 271.338C304.238 271.727 303.967 272.657 303.974 273.575C303.979 274.289 304.04 275.012 304.166 275.715C304.813 279.337 305.102 282.966 305.031 286.661C304.981 289.268 305.15 291.915 305.87 294.483C308.668 304.459 312.223 314.109 318.332 323.148C317.615 322.785 317.294 322.697 317.072 322.499C311.77 317.758 305.939 313.704 300.221 309.505C294.058 304.979 287.578 300.828 281.779 295.878C271.563 287.158 260.821 279.637 247.179 277.652C241.509 276.827 235.755 276.568 230.035 276.117C229.045 276.039 227.785 275.111 227.077 276.602C226.42 277.985 228.049 278.417 228.401 279.406C228.516 279.729 229.01 279.902 229.293 280.183C232.67 283.539 236.912 285.687 240.834 288.244C247.686 292.712 254.994 296.206 263.413 296.564C269.231 296.811 274.98 297.287 280.635 299.018C285.088 300.381 288.329 303.389 292.035 305.843C300.757 311.617 308.893 318.151 317.037 324.669C321.505 328.244 325.612 332.268 329.896 336.074C331.85 337.81 333.837 339.508 336.424 341.758C334.469 341.441 333.375 341.294 332.295 341.084C323.419 339.357 314.526 338.974 305.801 341.667C300.573 343.28 295.585 345.651 290.267 347.04C289.526 347.234 288.559 347.014 288.328 348.053C288.083 349.151 288.786 349.838 289.565 350.452C292.074 352.43 295.036 353.379 298.074 354.086C307.567 356.295 316.87 356.611 325.678 351.409C329.861 348.939 334.04 346.477 338.95 345.488C340.501 345.175 341.467 345.308 342.587 346.245C345.265 348.485 348.072 350.646 351.216 352.102C362.714 357.427 374.133 363.024 387.059 364.216C390.091 364.496 393.069 365.361 396.071 365.957C396.052 366.12 396.032 366.283 396.013 366.445C395.655 366.455 395.296 366.46 394.937 366.475C387.496 366.79 380.64 369.06 374.516 373.197C373.246 374.055 372.027 374.98 370.835 375.94C370.551 375.762 370.105 375.808 369.815 375.854C368.08 376.132 366.527 375.311 364.86 375.164C348.064 373.683 331.346 371.549 315.08 367.001C303.065 363.642 290.805 361.227 279.008 356.932C274.132 355.157 270.818 352.451 268.026 348.481C262.719 340.935 260.906 331.824 256.86 323.716C252.452 314.881 247.495 306.469 238.713 301.154C237.555 300.453 236.408 298.733 234.993 299.8C233.586 300.861 233.797 302.834 234.036 304.505C234.17 305.442 234.483 306.377 234.859 307.252C236.343 310.7 237.482 314.229 238.023 317.966C239.442 327.778 245.066 334.788 252.974 340.303C258.629 344.246 264.098 348.441 269.979 353.42C263.048 351.624 257.496 348.579 251.619 346.383C248.424 345.189 245.125 344.153 242.318 342.104C230.7 333.621 220.621 323.619 212.645 311.608C210.449 308.3 207.767 305.125 206.779 301.243C205.216 295.1 208.484 290.043 211.642 285.292C219.961 272.777 222.168 259.698 216.162 245.624C215.606 244.32 215.029 242.646 213.298 242.898C211.795 243.117 211.156 244.48 210.81 246.045C210.123 249.152 209.509 252.287 208.145 255.22C204.648 262.736 202.277 270.57 202.356 278.937C202.404 284.016 202.816 289.091 203.065 294.169C202.91 294.257 202.756 294.345 202.601 294.433C201.231 291.666 199.568 289.003 198.543 286.114C194.265 274.053 190.189 261.92 186.547 249.647C184.684 243.368 184.696 237.398 189.072 232C192.113 228.248 195.23 224.54 198.021 220.606C204.498 211.477 206.28 201.459 203.147 190.64C202.896 189.774 202.663 188.789 201.689 188.671C200.604 188.54 199.777 189.198 199.133 190.139C196.707 193.684 194.287 197.237 191.74 200.695C190.546 202.316 189.619 204.021 188.829 205.863C186.154 212.102 185.515 218.78 184.55 225.377C184.011 229.059 183.82 232.792 183.472 236.502C182.459 233.231 181.864 229.959 181.291 226.684C179.956 219.058 178.625 211.366 179.027 203.645C179.366 197.131 180.17 190.619 180.607 184.09C181.537 170.173 176.848 157.951 169.409 146.543C168.929 145.806 168.394 144.96 167.352 145.218C166.479 145.434 165.898 146.07 165.631 147.013C163.483 154.588 162.893 162.349 163.429 170.134C163.853 176.282 165.819 182.151 168.178 187.833C170.495 193.413 173.043 198.897 175.356 204.478C179.037 213.358 178.825 223.029 180.825 232.256C181.825 236.871 182.219 241.596 183.471 246.182C184.715 250.74 185.477 255.426 186.935 259.961C186.527 259.724 186.263 259.44 186.061 259.117C185.724 258.577 185.451 257.995 185.108 257.459C181.216 251.375 177.578 245.176 171.871 240.406C165.13 234.771 156.839 231.141 151.143 224.173C149.867 222.612 149 223.8 148.677 225.056C148.45 225.937 148.56 226.985 148.791 227.89C149.793 231.821 151.041 235.679 153.012 239.247C157.084 246.62 162.445 252.613 170.213 256.404C174.905 258.694 180.152 259.43 184.664 262.096C186.701 263.3 188.715 264.767 189.293 267.012C190.65 272.276 193.169 277.058 195.129 282.059C198.743 291.28 203.071 300.175 208.68 308.406C213.4 315.332 217.927 322.388 223.857 328.394C227.585 332.17 231.391 335.858 235.412 339.389C233.951 338.967 232.558 338.435 231.224 337.781C213.983 329.322 199.053 317.373 184.035 305.707C171.039 295.611 159.075 284.225 147.212 272.767C142.295 268.018 141.03 262.798 141.579 256.414C141.969 251.883 144.152 247.79 144.551 243.395C145.702 230.743 144.251 218.55 136.434 207.892C135.844 207.087 135.485 205.738 134.316 205.841C132.994 205.957 132.577 207.339 132.053 208.395C131.808 208.888 131.688 209.449 131.552 209.989C130.44 214.407 130.475 218.976 129.804 223.462C128.394 232.894 129.721 241.982 134.171 250.6C136.321 254.764 137.848 259.251 139.82 263.982C139.155 263.703 138.915 263.672 138.783 263.536C127.997 252.408 118.789 240.003 109.795 227.441C108.577 225.74 107.222 224.062 106.504 221.952C104.076 214.814 106.264 208.175 109.569 202.236C113.625 194.947 114.735 187.232 115.218 179.259C115.779 169.997 112.697 161.736 107.703 154.094C106.967 152.968 105.923 152.854 104.786 153.526C103.119 154.512 102.827 156.159 102.79 157.875C102.751 159.7 102.816 161.508 102.152 163.278C100.159 168.589 99.1339 174.172 97.6739 179.632C95.1599 189.032 96.8829 198.093 100.084 207.022C101.348 210.547 102.45 214.129 103.627 217.686C98.4149 212.276 94.6089 205.996 90.9829 199.714C85.2579 189.796 79.4559 179.886 75.0259 169.252C73.3259 165.172 72.0379 161.241 74.3669 157.204C79.3839 148.509 83.1349 139.428 84.9389 129.469C86.1769 122.636 86.4829 116.146 82.6049 110.07C81.2189 107.899 79.5849 107.717 77.6509 109.454C76.8439 110.179 76.1629 111.135 75.6749 112.111C73.8749 115.713 73.3799 119.725 72.3299 123.555C69.3799 134.32 69.0289 145.295 70.3849 157.006C69.9029 155.919 69.6579 155.436 69.4709 154.932C66.8389 147.839 64.2229 140.74 61.5859 133.648C58.3289 124.891 55.8289 116.234 57.0049 106.49C58.9199 90.614 56.1689 75.196 49.3769 60.623C47.7659 57.167 46.2609 53.626 43.3739 50.916C40.5239 48.241 38.5339 48.632 37.3829 52.476C35.8659 57.541 35.7069 62.811 35.3919 68.057C34.9999 74.615 36.7619 80.82 38.1859 87.095C39.7209 93.857 42.7119 99.984 46.3639 105.796C49.9939 111.572 54.1619 117.036 56.1519 123.706C56.6209 125.276 59.6419 133.427 60.1489 134.839C64.3409 146.524 68.6029 158.18 73.4069 169.633C74.0539 171.176 75.3589 172.566 75.0389 174.5C72.0289 171.788 69.1519 169.072 66.1439 166.509C57.3189 158.99 46.9319 154.405 36.0859 150.711C34.2769 150.095 32.4969 149.343 30.6439 148.915C27.5969 148.212 25.4099 149.647 26.0769 151.847C26.5049 153.256 26.8869 154.703 27.7549 156.01C35.5379 167.726 46.5049 173.848 60.4489 174.836C64.8619 175.149 69.1919 175.915 73.2059 177.827C76.0829 179.198 78.4599 181.201 79.9149 184.17C81.4199 187.242 82.8769 190.354 84.6329 193.282C87.0489 197.31 89.7329 201.177 92.2889 205.121C94.8899 209.137 97.2869 213.304 100.435 216.928C103.378 220.316 105.194 224.435 108.076 227.905C112.569 233.316 115.593 239.823 120.507 245.285C119.99 245.218 119.726 245.256 119.549 245.15C111.211 240.159 102.488 235.942 93.6869 231.832C89.0999 229.69 85.3759 226.24 83.4519 221.252C81.7029 216.717 79.1599 212.553 77.1289 208.155C72.0469 197.15 63.1349 190.252 52.7289 184.89C50.5629 183.774 49.1559 184.861 49.2629 187.433C49.3569 189.703 50.8279 191.23 52.1909 192.773C54.9539 195.901 57.1529 199.386 59.2259 202.996C62.3709 208.473 66.0329 213.579 70.9439 217.667C74.0409 220.245 77.1239 222.84 80.7559 225.882C79.5569 225.6 79.0359 225.524 78.5459 225.356C72.7429 223.37 66.9429 221.374 61.1439 219.373C54.7629 217.171 48.2139 215.549 42.4409 211.656C38.2429 208.826 33.4069 207.047 28.4159 205.712C20.0219 203.468 11.4799 204.106 2.97694 203.863C0.157938 203.783 -0.479063 204.718 0.314937 207.473C1.14994 210.369 3.69894 211.455 5.93994 212.68C18.6379 219.623 32.3039 221.928 46.6369 220.843C51.7279 220.458 56.8499 219.76 61.8379 221.493C67.4099 223.429 73.1959 224.708 78.6449 227.024C84.5439 229.531 90.5099 231.899 95.8669 235.743C90.2109 235.095 85.1119 236.918 80.0969 238.944C76.5599 240.373 73.1019 242.014 69.6799 243.704C65.3309 245.852 61.0269 248.095 56.7609 250.402C55.2609 251.213 54.4939 252.61 54.7689 254.416C55.0449 256.233 56.5929 256.103 57.8489 256.491C60.1299 257.197 62.4439 256.202 64.7379 256.748C73.8489 258.914 80.8099 254.996 87.0659 248.895C90.3459 245.696 93.0319 241.826 97.5829 240.027C101.179 238.606 104.47 237.936 107.963 240.368C110.367 242.041 113.112 243.218 115.677 244.666C121.152 247.755 126.413 250.952 129.966 256.543C132.424 260.41 135.727 263.759 138.791 267.218C144.449 273.605 151.281 278.748 157.457 284.589C160.677 287.635 163.888 290.689 167.103 293.74C166.076 293.656 165.334 293.215 164.562 292.838C157.298 289.288 149.888 286.145 141.746 285.274C130.082 284.027 118.322 285.108 106.645 283.914C104.912 283.737 102.277 283.482 101.701 285.65C101.078 287.995 103.65 288.997 105.265 289.861C111.51 293.203 117.816 296.453 124.245 299.424C130.872 302.486 137.815 303.458 144.966 301.224C150.145 299.606 155.331 297.902 160.788 297.653C165.939 297.418 170.76 297.162 175.396 301.217C183.288 308.119 192.057 314.021 200.469 320.327C203.479 322.584 206.523 324.796 209.552 327.028C209.457 327.271 209.363 327.514 209.268 327.757C208.679 327.563 208.103 327.295 207.499 327.185C200.758 325.961 193.993 324.402 187.123 324.974C178.098 325.725 169.459 327.991 161.446 332.539C157.731 334.648 153.538 335.907 149.596 337.631C148.451 338.132 147.266 338.721 147.547 340.438C147.822 342.115 149.131 341.838 150.139 341.878C154.259 342.043 158.17 343.158 162.057 344.369C170.743 347.075 179.25 346.904 187.525 342.876C192.081 340.658 195.858 337.234 200.13 334.595C206.66 330.563 213.365 328.332 220.456 333.734C222.785 335.508 225.483 336.836 228.11 338.176C243.12 345.837 258.901 351.671 274.633 357.608C279.181 359.325 283.825 360.79 288.932 362.545C281.143 364.495 273.932 366.124 267.256 369.541C259.233 373.647 252.645 379.794 245.185 384.69C243.984 385.478 242.533 386.328 243.207 388.062C243.878 389.79 245.566 389.454 246.953 389.235C250.599 388.659 254.223 388.586 257.91 388.92C265.365 389.596 276.809 383.963 279.451 376.513C280.109 374.658 281.226 372.931 282.331 371.278C286.547 364.971 292.887 362.764 300.126 364.912C310.457 367.978 320.906 370.595 331.427 372.919C339.864 374.783 348.51 375.073 357.046 376.199C361.106 376.734 365.215 376.894 369.305 377.201C363.569 382.048 358.355 387.58 351.513 391.007C350.94 391.294 350.659 391.734 350.816 392.364C350.997 393.09 351.563 393.005 352.152 393.002C354.295 392.991 356.437 393.04 358.58 393.062C369.788 393.178 379.468 389.138 387.739 381.822C392.552 377.564 396.287 372.158 401.669 368.446C403.092 367.465 404.363 367 406.095 367.521C408.831 368.344 411.624 369.149 414.515 368.989C418.43 368.772 422.291 369.374 426.18 369.531C427.224 369.573 427.742 369.953 426.733 370.933C425.104 372.517 424.062 374.52 423.155 376.548C422.742 377.47 421.316 381.492 420.932 382.838C418.984 389.659 415.209 395.814 413.668 402.792C413.292 404.496 412.117 405.603 410.301 405.675C407.515 405.787 404.769 405.801 402.041 404.809C397.089 403.009 391.982 401.217 386.677 402.817C379.158 405.085 372.714 409.305 367.245 414.92C365.58 416.629 367.129 417.315 368.62 417.451C372.273 417.782 375.963 417.77 379.595 418.236C386.239 419.088 392.512 417.679 398.841 415.906C402.543 414.869 406.095 413.569 409.813 411.492C408.667 415.258 407.003 418.114 404.988 420.806C400.41 426.922 394.59 432.036 390.683 438.702C389.176 441.272 386.865 442.945 383.858 443.501C381.36 443.963 378.902 444.6 376.333 444.706C365.207 445.165 356.131 449.879 348.788 458.134C346.506 460.7 344.097 463.125 341.058 464.823C340.53 465.118 339.677 465.228 339.794 466.05C339.905 466.835 340.669 467.136 341.335 467.411C343.285 468.217 345.282 467.682 347.262 467.585C354.717 467.218 361.887 465.436 368.733 462.62C377.462 459.029 383.369 452.157 388.527 444.539C391.683 439.878 394.241 434.724 398.386 430.845C406.423 423.322 411.552 414.047 415.469 403.946C416.985 400.036 418.639 396.18 420.459 391.743C421.527 395.043 422.949 397.594 424.545 400.039C429.484 407.602 436.433 412.342 445.251 414.105C448.881 414.831 450.338 412.711 448.891 409.257C447.966 407.05 446.964 404.853 445.765 402.786C441.901 396.123 436.692 391.293 428.585 390.453C426.698 390.258 424.765 390.087 422.973 389.305C422.12 388.933 421.412 388.579 421.698 387.411C423.282 380.937 426.335 375.287 431.035 370.541C431.569 370.002 432.235 370.217 432.851 370.166C437.543 369.779 442.204 370.44 446.839 370.883C457.53 371.906 468.1 371.449 478.594 369.22C483.513 368.175 488.411 367.025 493.459 365.891C493.356 367.161 492.658 367.581 492.06 368.066C482.135 376.13 478.087 387.357 475.322 399.255C474.152 404.289 473.595 409.532 470.019 413.673C469.586 414.174 469.522 414.673 470.041 415.134C470.576 415.61 471.049 415.315 471.546 414.99C478.109 410.695 484.525 406.165 489.521 400.056C492.142 396.851 494.069 393.098 493.897 388.687C493.657 382.522 494.396 376.425 495.424 370.38C495.834 367.966 496.8 365.291 499.192 364.268C502.979 362.646 506.999 361.56 510.942 360.316C519.808 357.519 528.714 354.905 537.834 352.984C542.246 352.055 546.466 350.195 550.751 348.693C554.168 347.495 557.705 346.917 561.324 346.098C561.204 347.135 560.548 347.213 560.107 347.453C554.197 350.667 550.142 355.583 547.284 361.545C544.175 368.032 541.894 374.846 539.489 381.614C538.186 385.281 536.908 389.012 534.281 392.032C533.85 392.527 533.634 392.946 534.128 393.467C534.661 394.029 535.129 393.611 535.616 393.338C537.692 392.175 539.792 391.093 541.718 389.638C552.211 381.708 559.677 372.287 559.201 358.138C558.918 349.716 563.793 345.137 571.998 344.6C576.671 344.294 581.384 343.799 585.95 342.801C592.476 341.375 599.033 340.241 605.63 339.394C599.31 343.246 593.034 347.171 586.818 351.191C586.303 351.524 585.308 351.658 585.923 352.687C586.452 353.572 587.102 353.594 587.989 353.105C591.953 350.917 596.166 349.159 599.677 346.202C601.876 344.35 604.353 342.913 606.797 341.42C608.358 340.467 609.965 339.586 611.574 338.708C614.765 338.387 617.966 338.129 621.18 337.95C629.766 337.472 638.404 337.234 646.901 336.049C654.891 334.935 662.907 335.084 670.883 334.334C672.457 334.186 675.457 335.216 675.301 334.076C675.026 332.059 671.961 333.486 670.377 332.442C670.332 332.412 670.227 332.484 670.148 332.49C660.377 333.255 650.571 333.081 640.784 333.864C632.814 334.502 624.829 334.955 616.876 335.698C618.61 334.64 620.291 333.501 621.852 332.175C623.486 330.787 625.172 329.981 627.23 329.974C632.257 329.957 637.211 329.318 642.188 328.655C650.47 327.551 658.698 326.041 667.148 326.246C673.543 326.401 679.712 324.179 686.043 323.429C702.431 321.487 716.814 315.493 727.773 302.705C729.45 300.748 732.132 298.567 730.615 295.662C729.057 292.679 725.73 293.409 723.02 293.832C719.804 294.333 716.69 295.548 713.47 295.945C703.826 297.134 694.922 300.391 686.362 304.847C679.008 308.674 673.054 314.435 666.282 319.052C662.422 321.683 658.576 324.71 653.855 325.482C647.577 326.509 641.205 326.961 634.873 327.656C633.135 327.847 631.395 328.025 629.656 328.21C630.179 327.168 630.885 326.686 631.54 326.142C636.685 321.874 643.011 319.135 647.596 314.194C657.522 303.498 670.061 295.806 680.289 285.475C683.916 281.812 688.352 280.402 693.442 280.515C695.659 280.564 697.95 280.458 700.095 279.951C706.686 278.394 713.219 276.596 719.782 274.918C722.634 274.189 725.433 273.34 728.472 273.443C734.906 273.661 741.296 274.349 747.778 274.189C761.979 273.838 774.915 270.688 785.222 260.158C787.56 257.77 787.732 255.851 785.558 253.325C782.131 249.341 777.642 249.462 773.199 250.502C764.048 252.644 755.023 255.287 745.971 257.824C739.218 259.716 733.158 262.703 728.053 267.479C724.367 270.927 720.339 273.61 715.289 274.54C713.728 274.828 712.187 275.226 710.639 275.581C705.279 276.81 700.008 278.488 694.511 279.019C692.825 279.182 690.253 279.99 689.633 278.551C689.112 277.341 691.552 276.013 692.84 274.901C698.942 269.636 704.826 264.144 709.742 257.733C712.08 254.683 715.051 252.786 718.583 251.494C728.198 247.978 737.442 243.842 745.302 236.986C751.677 231.427 757.762 225.857 760.324 217.349C762.416 210.402 759.32 205.249 752.062 204.741C753.574 202.393 755.016 200.136 756.483 197.895C756.799 197.412 757.278 197.155 757.885 197.086C763.755 196.424 768.685 193.356 773.805 190.798C777.841 188.781 781.902 187.07 786.589 187.613C796.72 188.787 806.728 190.939 817.061 190.424C823.859 190.085 829.487 187.647 834.103 182.942C837.298 179.686 836.375 175.923 832.186 174.143C829.603 173.045 826.716 172.647 823.979 172.91C818.193 173.466 812.374 174.107 806.706 175.342C798.887 177.046 791.371 179.417 784.419 183.908C777.946 188.09 770.62 190.98 763.566 194.213C762.063 194.902 760.325 195.704 758.131 195.427C765.197 185.622 770.157 175.01 774.531 164.147C776.82 158.462 780.295 154.566 786.293 153.027C787.196 152.795 788.027 152.242 788.86 151.781C798.325 146.543 805.467 138.988 811.072 129.812C812.33 127.752 813.718 125.565 815.952 124.338C820.425 121.882 824.761 118.991 829.511 117.262C841.398 112.936 849.821 104.668 857.007 94.742C858.703 92.399 860.204 89.989 860.902 87.138C861.515 84.634 861.781 82.073 859.669 80.232ZM798.326 61.317C796.316 49.767 797.105 38.284 798.743 26.807C799.533 21.273 799.186 15.657 800.164 10.137C800.634 7.48701 801.581 5.07901 803.062 2.88801C804.454 0.831007 805.859 0.937007 806.946 3.18501C808.246 5.87201 808.782 8.78801 809.036 11.736C809.724 19.735 811.023 27.646 812.299 35.564C813.849 45.186 811.615 54.365 809.066 63.539C807.149 70.436 804.08 76.912 801.848 84.594C801.195 76.137 799.619 68.747 798.326 61.317ZM757.566 133.232C756.255 127.814 756.035 122.36 755.694 116.888C755.185 108.707 754.031 100.554 754.584 92.323C754.766 89.621 755.105 86.959 756.3 84.487C757.553 81.897 759.183 81.844 760.877 84.238C762.735 86.864 763.075 90.008 763.924 92.964C766.625 102.372 766.652 111.907 765.466 121.577C764.409 130.19 763.115 138.746 761.199 147.274C761.212 142.277 758.703 137.928 757.566 133.232ZM682.6 235.498C676.045 228.682 667.216 225.223 660.635 218.792C654.697 212.99 651.12 205.891 649.655 197.746C649.158 194.985 651.056 195.083 652.946 195.268C656.83 195.649 659.372 198.385 662.02 200.702C671.842 209.294 677.602 220.55 682.291 232.454C682.522 233.041 682.615 233.689 682.712 234.319C682.757 234.614 682.659 234.931 682.6 235.498ZM638.503 276.232C637.409 267.263 638.126 258.446 640.282 249.709C640.891 247.243 641.282 244.727 642.488 242.424C643.2 241.065 643.97 241.02 645.137 241.779C647.245 243.149 648.121 245.359 648.724 247.547C651.198 256.519 651.132 265.607 649.925 274.792C649.026 281.64 647.559 288.263 644.529 294.495C644.26 295.048 643.977 295.593 643.478 296.585C642.711 289.245 639.337 283.075 638.503 276.232ZM481.786 311.098C481.482 306.974 483.354 303.546 484.943 300C485.314 299.173 485.677 299.346 486.102 299.952C490.122 305.689 493.625 311.625 493.456 318.981C493.357 323.283 493.287 327.586 493.151 331.886C493.082 334.065 493.736 336.109 494.482 338.947C486.607 330.756 482.565 321.676 481.786 311.098ZM438.358 307.113C437.974 307.59 437.605 308.441 437.198 308.46C436.322 308.502 436.323 307.471 436.074 306.857C432.874 298.979 432.965 291.039 435.653 283.045C437.742 276.832 440.852 271.11 444.107 265.165C448.727 275.913 450.304 286.432 444.101 296.945C442.123 300.296 440.834 304.04 438.358 307.113ZM395.629 291.565C386.252 288.158 381.535 280.223 376.988 272.269C374.386 267.717 372.512 262.749 370.329 257.959C370.143 257.551 369.897 256.973 370.051 256.655C370.296 256.152 370.886 256.494 371.332 256.576C384.909 259.055 394.482 267.106 401.268 278.66C403.422 282.327 404.504 286.613 406.195 290.566C406.938 292.303 407.978 293.914 409.039 295.866C404.188 295.369 400.011 293.158 395.629 291.565ZM415.228 325.45C407.782 330.29 399.567 330.765 391.082 328.991C389.924 328.749 388.757 328.546 387.595 328.326C387.589 328.049 387.583 327.771 387.577 327.494C392.326 325.698 396.223 322.483 400.4 319.775C406.538 315.796 413.248 316.009 420.024 316.136C422.064 316.174 424.1 316.45 427.024 316.69C421.906 318.955 419.11 322.927 415.228 325.45ZM350.139 312.242C356.68 316.171 362.039 320.668 364.74 327.718C366.99 333.592 368.02 339.644 367.791 345.962C367.719 347.953 368.461 349.973 368.932 352.533C356.927 341.565 351.606 328.065 350.139 312.242ZM231.002 278.325C249.774 277.145 265.625 283.424 279.274 295.785C261.205 295.41 244.794 290.65 231.002 278.325ZM318.111 319.406C309.113 305.58 305.257 290.498 306.219 274.263C320.392 286.302 318.453 302.956 318.111 319.406ZM318.413 350.706C314.271 352.296 310.006 353.415 305.575 352.886C300.461 352.275 295.275 351.744 290.579 349.219C305.329 342.577 320.314 338.257 337.058 344.149C330.158 345.532 324.395 348.41 318.413 350.706ZM245.871 331.898C242.639 328.105 240.145 323.564 239.642 318.391C239.218 314.026 237.607 310.06 236.117 306.033C235.583 304.589 235.281 303.14 235.67 301.493C240.922 303.724 244.052 307.966 247.414 312.267C254.284 321.055 257.291 331.685 262.266 341.362C263.136 343.054 263.978 344.76 264.678 346.609C258.319 341.777 251.085 338.016 245.871 331.898ZM177.55 192.008C177.194 195.449 177.728 198.963 176.801 202.657C167.392 184.96 160.806 167.086 167.225 146.839C170.165 149.994 171.767 153.949 173.801 157.675C179.787 168.644 178.764 180.295 177.55 192.008ZM185.668 228.272C186.88 220.99 187.228 213.525 190.085 206.581C191.369 203.463 193.237 200.716 195.347 198.084C196.982 196.044 198.309 193.758 199.792 191.594C200.087 191.163 200.182 190.4 200.863 190.474C201.576 190.552 201.44 191.299 201.607 191.808C204.417 200.352 202.434 208.213 198.642 216.027C196.181 221.097 192.118 224.841 188.951 229.308C187.962 230.703 186.889 232.038 185.364 234.045C185.483 231.56 185.399 229.887 185.668 228.272ZM150.227 226.07C151.224 226.127 151.776 226.865 152.268 227.528C156.243 232.888 162.415 235.349 167.613 239.064C175.061 244.387 179.846 251.721 184.494 259.469C164.072 254.43 153.343 243.518 150.227 226.07ZM208.573 257.827C210.296 254.191 211.439 250.411 212.291 246.51C212.434 245.854 212.195 244.816 213.058 244.683C213.978 244.542 214.306 245.591 214.612 246.241C216.195 249.598 216.922 253.177 216.965 256.876C217.017 261.424 216.749 265.958 216.155 270.472C215.502 275.44 213.339 279.843 210.425 283.736C208.007 286.967 206.823 290.617 205.183 295.108C203.139 281.807 203.024 269.534 208.573 257.827ZM54.2109 99.386C53.5949 104.223 53.3309 109.055 53.9089 114.041C49.3329 107.477 44.7079 100.964 41.7039 93.445C36.6539 80.802 35.5509 67.831 38.0889 54.506C38.2349 53.738 38.5789 53.003 38.8589 52.264C39.6439 50.19 40.6859 50.152 42.1579 51.725C44.2559 53.965 45.6249 56.596 46.9249 59.345C52.9349 72.054 56.0099 85.272 54.2109 99.386ZM71.1359 141.663C71.2779 132.325 73.4409 123.329 76.1269 114.443C76.2419 114.061 76.3689 113.68 76.5309 113.316C77.2169 111.783 77.8759 109.925 79.7229 109.788C81.5939 109.649 81.8879 111.69 82.4609 112.984C83.9909 116.445 84.7309 120.043 84.2149 123.9C82.6919 135.298 78.9029 145.83 72.3659 156.106C70.6699 150.889 71.0669 146.244 71.1359 141.663ZM53.4249 171.255C42.8639 169.25 34.8609 163.679 28.9869 154.845C28.2139 153.682 26.8549 152.122 27.7209 150.998C28.6859 149.745 30.5109 150.722 31.9469 151.146C43.9299 154.677 55.2889 159.486 65.0409 167.507C67.4719 169.507 69.7369 171.71 72.0779 173.819C65.9879 171.484 59.5579 172.42 53.4249 171.255ZM103.402 212.1C99.4959 201.2 96.0609 190.569 99.1269 179.086C100.605 173.549 101.81 167.935 103.849 162.553C104.539 160.732 104.182 158.758 104.326 156.855C104.378 156.172 104.316 155.259 105.184 155.06C105.99 154.875 106.151 155.768 106.438 156.264C112.175 166.159 115.713 176.336 112.448 188.091C110.644 194.587 107.039 200.327 105.487 206.87C105.092 208.537 104.831 210.312 103.402 212.1ZM13.2169 213.493C9.40394 211.777 5.47994 210.113 2.24994 207.29C1.80794 206.904 1.31694 206.537 1.50194 205.944C1.65594 205.45 2.21394 205.409 2.72494 205.426C11.2199 205.712 19.7469 205.183 28.1419 207.314C33.9519 208.789 39.1089 211.538 44.2639 214.39C46.4149 215.58 48.5489 216.801 51.0379 218.203C37.8299 219.474 25.1819 218.877 13.2169 213.493ZM73.7769 218.132C67.4719 213.366 62.9309 207.141 59.3369 200.222C57.4679 196.624 54.7859 193.697 52.3849 190.523C51.5169 189.376 49.8169 187.776 50.9079 186.618C51.9819 185.478 53.5779 187.184 54.8049 187.911C61.5179 191.89 67.8129 196.374 71.6659 203.433C75.4929 210.445 79.1929 217.526 83.3599 225.352C79.3749 223.006 76.7279 220.362 73.7769 218.132ZM79.4599 252.578C76.5829 254.207 73.5389 254.911 70.3349 254.987C66.5139 255.077 62.6869 254.974 58.8639 254.921C57.8429 254.907 56.4009 255.052 56.1169 253.985C55.7619 252.65 57.1189 251.864 58.1799 251.403C62.4959 249.529 66.5979 247.25 70.7519 245.062C75.6899 242.461 80.7619 240.156 86.1089 238.495C88.9529 237.611 91.8209 237.107 95.3629 237.673C89.6079 242.562 85.8759 248.944 79.4599 252.578ZM139.596 258.507C136.877 252.145 133.266 246.225 131.737 239.358C130.44 233.533 130.421 227.764 131.409 222.023C132.102 217.997 131.88 213.891 132.874 209.923C133.081 209.098 133.062 207.944 134.066 207.845C134.848 207.768 135.237 208.784 135.686 209.438C142.8 219.813 143.772 231.31 142.006 243.357C141.267 248.395 139.647 253.293 139.596 258.507ZM143.462 299.013C132.289 300.915 122.072 298.488 113.099 291.41C110.504 289.362 106.924 288.884 104.524 286.103C106.76 285.185 108.844 285.591 110.847 285.786C119.593 286.64 128.369 286.016 137.131 286.481C146.942 287.001 155.841 290.116 164.451 294.469C164.704 294.597 164.874 294.891 165.361 295.395C157.659 295.593 150.646 297.789 143.462 299.013ZM182.897 341.938C178.05 344.273 172.585 344.725 167.208 343.469C161.942 342.238 156.716 340.839 151.151 339.432C152.686 337.672 154.7 337.502 156.379 336.689C164.823 332.6 173.179 328.344 182.653 326.933C191.119 325.672 199.257 327.454 208.347 328.775C198.685 332.219 191.225 337.926 182.897 341.938ZM274.124 379.627C269.226 384.499 263.05 386.416 256.304 386.696C252.993 386.833 249.694 386.141 245.716 386.802C257.984 377.17 269.453 367.687 285.487 365.353C280.036 369.201 278.371 375.402 274.124 379.627ZM384.739 381.438C378.418 387.531 370.794 390.449 362.225 391.241C359.87 391.459 357.492 391.431 354.626 391.534C364.514 384.918 371.479 375.279 382.333 370.774C387.518 368.622 392.886 367.656 398.567 368.2C392.44 371.135 389.301 377.04 384.739 381.438ZM342.68 466.565C344.231 465.145 345.294 464.031 346.497 463.096C351.33 459.341 355.37 454.674 360.571 451.31C364.939 448.485 369.719 447.732 374.672 447.498C378.356 447.324 381.941 446.926 385.473 444.925C376.018 461.765 360.332 465.423 342.68 466.565ZM401.06 413.89C392.74 416.936 384.19 417.835 375.419 416.38C374.874 416.29 374.295 416.389 373.757 416.279C372.297 415.981 369.965 416.982 369.547 415.736C369.086 414.364 371.271 413.341 372.436 412.368C381.069 405.16 390.796 403.398 401.54 406.615C404.325 407.449 407.101 408.481 410.822 408.162C407.531 411.03 404.397 412.669 401.06 413.89ZM439.42 397.93C443.214 400.882 445.603 404.989 447.033 409.564C447.64 411.507 447.203 412.825 444.612 412.252C434.812 410.085 425.582 402.269 422.254 392.207C422.166 391.941 422.182 391.64 422.15 391.363C428.6 391.969 434.423 394.043 439.42 397.93ZM490.707 389.985C490.797 394.258 488.56 397.936 485.943 401.237C482.801 405.201 478.757 408.099 474.037 411.241C477.471 399.438 478.719 387.645 485.335 377.619C487.414 374.469 490.426 372.243 493.181 369.632C490.936 376.341 490.563 383.091 490.707 389.985ZM417.057 348.853C428.001 343.637 437.868 347.562 447.866 352.689C436.913 355.909 426.956 352.8 417.057 348.853ZM433.482 367.179C436.119 363.794 439.529 361.179 443.269 358.908C447.863 356.119 452.761 354.007 457.812 352.244C461.6 350.921 464.651 348.281 468.402 346.789C478.238 342.876 487.923 341.9 497.867 346.26C505.345 349.538 513.213 351.65 521.145 353.52C521.726 353.657 522.444 353.562 522.939 354.341C494.024 365.118 464.826 373.366 433.482 367.179ZM550.4 378.033C546.935 382.16 542.663 385.259 538.629 388.693C542.449 379.718 544.371 370.135 548.9 361.594C551.359 356.957 554.391 352.68 559.532 349.434C555.441 359.03 557.304 369.809 550.4 378.033ZM556.065 332.182C548.706 328.669 543.898 322.356 540.402 315.071C540.248 314.751 540.245 314.358 540.129 313.786C546.607 317.33 553.957 317.486 560.362 320.682C563.678 322.336 566.949 323.978 569.607 326.497C574.024 330.682 578.136 335.192 583.893 338.807C573.794 338.024 564.572 336.242 556.065 332.182ZM678.222 311.813C686.261 305.841 695.173 301.453 705.064 299.295C710.506 298.108 715.945 296.901 721.366 295.624C723.408 295.143 725.445 294.836 727.524 295.072C729.489 295.294 730.198 296.223 729.105 298.133C726.074 303.43 721.436 306.995 716.38 310.149C707.725 315.548 698.125 318.285 688.253 320.319C682.56 321.492 676.868 322.697 671.23 324.105C667.911 324.933 664.689 324.849 660.971 324.078C667.563 320.637 672.675 315.934 678.222 311.813ZM758.564 255.777C763.769 254.31 769.057 253.124 774.339 251.949C777.162 251.321 780.044 251.232 782.735 252.615C786.131 254.36 786.564 256.877 783.705 259.273C775.324 266.298 765.881 270.716 754.769 271.553C745.206 272.273 735.685 271.205 726.21 271.696C734.669 261.442 746.857 259.076 758.564 255.777ZM723.284 173.487C724.351 168.148 726.1 162.875 729.492 158.396C730.362 157.247 731.282 156.016 733.016 156.52C734.658 156.997 735.208 158.242 735.601 159.866C738.396 171.415 735.524 182.085 730.789 192.506C728.754 196.985 726.778 201.491 724.783 205.989C724.566 206.477 724.567 207.094 723.691 207.429C723.438 203.732 723.143 200.126 722.952 196.514C722.545 188.827 721.768 181.076 723.284 173.487ZM759.049 212.517C759.239 214.088 759.132 215.708 758.59 217.237C757.176 221.221 755.532 225.099 752.485 228.153C746.623 234.027 740.693 239.852 733.236 243.733C727.537 246.699 721.558 249.033 715.277 251.256C722.35 236.837 730.908 223.867 742.235 212.869C744.588 210.584 747.207 208.586 750.276 207.363C755.613 205.237 758.364 206.865 759.049 212.517ZM800.271 178.375C807.647 175.739 815.506 175.923 823.092 174.498C825.901 173.97 828.854 174.342 831.566 175.419C834.731 176.676 835.299 179.328 832.924 181.843C828.858 186.148 823.454 187.462 817.87 188.339C811.429 189.351 805.162 187.622 798.823 187.12C794.633 186.788 790.488 185.872 785.891 185.15C790.223 181.368 795.366 180.128 800.271 178.375ZM859.376 86.04C858.09 91.182 855.035 95.285 851.431 98.92C842.866 107.558 832.767 113.967 821.556 118.627C819.912 119.31 818.543 120.387 816.665 121.568C819.588 113.838 824.871 108.283 830.121 102.806C836.182 96.481 842.616 90.514 848.885 84.39C850.338 82.97 852.122 82.064 853.934 81.242C855.485 80.538 857.242 79.929 858.642 81.327C859.92 82.603 859.803 84.33 859.376 86.04Z" fill="gray"/>
</svg>
