<svg width="107" height="100" viewBox="0 0 107 100" fill="none" xmlns="http://www.w3.org/2000/svg">
<path d="M82.7351 73.277C81.1241 71.614 79.1981 70.458 77.2491 69.337C76.8451 69.105 76.3611 68.98 76.0131 68.688C73.1231 66.26 69.5431 65.449 66.1021 64.215C60.9461 62.367 55.7541 60.474 51.3101 57.129C49.3831 55.678 47.9521 53.698 46.5831 51.743C43.3931 47.189 39.8341 42.872 37.5571 37.719C35.3551 32.735 34.5221 27.576 35.3621 22.187C35.7341 19.797 35.5331 17.379 35.8121 15.001C36.1751 11.909 36.8491 8.85404 37.2491 5.76404C37.4691 4.06204 37.9201 2.37904 37.8261 0.638037C37.8131 0.406037 37.7611 0.102037 38.1021 0.017037C38.4151 -0.060963 38.5701 0.163037 38.6781 0.393037C40.8681 5.03204 44.8381 8.03304 48.6281 11.193C51.4971 13.586 54.4181 15.928 57.0451 18.583C59.2651 20.827 60.5941 23.686 62.0121 26.47C64.0351 30.443 64.4081 34.748 64.8251 39.087C65.1571 42.545 65.2681 46.017 65.6481 49.468C65.9521 52.227 67.2321 54.634 68.8021 56.807C70.8831 59.686 72.8401 62.638 74.6421 65.687C75.5891 67.289 77.1801 67.986 78.5421 68.993C82.8121 72.148 87.1341 75.231 91.2121 78.642C94.3311 81.251 97.9511 82.834 101.939 83.615C103.275 83.877 104.571 84.347 105.963 84.27C106.188 84.258 106.52 84.188 106.573 84.543C106.619 84.851 106.328 84.93 106.122 85.073C105.79 85.303 105.436 85.265 105.083 85.211C98.3911 84.201 92.5361 81.436 87.2261 77.219C84.1931 74.811 80.5821 73.439 76.6751 72.718C72.6581 71.977 68.6341 71.73 64.5811 71.539C61.8861 71.412 60.4831 73.254 59.2081 75.09C57.8161 77.095 57.1121 79.48 56.1871 81.734C55.5631 83.256 54.6881 84.599 53.3871 85.606C50.5161 87.825 47.6011 89.969 44.2481 91.459C41.8681 92.517 39.3731 93.174 36.8481 93.615C31.1861 94.606 25.5191 95.496 20.3461 98.226C17.4331 99.764 14.4511 99.161 11.4341 98.502C8.16607 97.788 4.84807 97.651 1.52807 98.212C1.25007 98.259 0.992068 98.421 0.714068 98.471C0.499068 98.509 0.406068 99.016 0.127068 98.665C-0.125932 98.347 0.0350676 98.034 0.346068 97.847C1.11107 97.39 1.86807 96.913 2.66907 96.528C4.53607 95.63 5.91107 94.24 7.12507 92.576C10.6311 87.768 14.6211 83.472 19.7971 80.342C24.3051 77.615 28.5841 74.552 32.5471 71.034C35.4231 68.481 39.1091 67.504 42.8181 66.98C47.2811 66.349 51.5441 67.369 55.7251 68.991C58.3511 70.009 61.0461 71.009 63.9671 70.809C68.5071 70.498 72.9761 71.044 77.4051 71.961C78.8751 72.266 80.2991 72.791 81.7431 73.22C82.0331 73.308 82.3001 73.558 82.7351 73.277ZM73.4061 65.665C71.6931 62.904 70.1551 60.378 68.5701 57.883C67.3261 55.924 65.6661 54.177 65.2651 51.785C64.5351 47.433 63.8711 43.073 63.7231 38.646C63.5921 34.712 63.1731 30.75 61.4451 27.195C59.3221 22.825 56.6741 18.733 52.8351 15.596C49.2211 12.643 45.5851 9.71704 42.1441 6.56104C40.7441 5.27704 39.5341 3.82004 38.5431 1.85404C37.6411 5.98604 37.3041 9.87704 36.6791 13.71C36.0261 17.71 35.9571 21.842 35.7251 25.917C35.3891 31.805 37.4001 37.136 40.5071 42.042C42.3791 44.998 44.3561 47.902 46.4811 50.679C48.1731 52.89 49.7991 55.207 52.1141 56.872C56.0961 59.736 60.6061 61.484 65.1941 63.065C66.0741 63.368 66.9611 63.653 67.8441 63.949C68.6811 64.23 69.5161 64.515 70.3521 64.798C67.7231 62.562 64.7651 60.882 62.3851 58.36C60.0221 55.856 57.9901 53.167 56.3111 50.138C60.7031 56.608 66.3421 61.694 73.4061 65.665ZM3.48507 97.046C7.50507 97.107 11.4061 97.876 15.3431 98.327C17.1251 98.531 19.0221 98.349 20.5131 97.224C23.7691 94.768 27.3891 93.405 31.4421 93.25C33.3081 93.179 35.1661 93.041 36.9981 92.739C42.4251 91.845 47.2051 89.484 51.5571 86.164C53.2151 84.899 54.6851 83.476 55.4471 81.527C56.8121 78.037 57.8711 74.398 60.9541 71.844C57.5231 71.648 54.4871 72.726 51.4781 73.925C49.3931 74.756 47.2561 75.379 44.9721 75.412C49.9501 74.477 54.2331 71.343 59.7501 71.052C58.8471 70.752 58.3061 70.58 57.7691 70.394C54.7821 69.359 51.8321 68.124 48.6981 67.671C42.1771 66.728 36.3951 68.888 31.4671 72.909C27.7701 75.925 23.8681 78.574 19.8781 81.128C15.9011 83.674 12.5031 86.782 9.60307 90.529C7.80707 92.85 6.39407 95.615 3.48507 97.046Z" fill="gray"/>
</svg>
