<?xml version="1.0" encoding="utf-8"?>
<!-- Generator: Adobe Illustrator 27.5.0, SVG Export Plug-In . SVG Version: 6.00 Build 0)  -->
<svg version="1.1" id="Layer_1" xmlns="http://www.w3.org/2000/svg" xmlns:xlink="http://www.w3.org/1999/xlink" x="0px" y="0px"
	 width="89.294px" height="98.11px" viewBox="0 0 89.294 98.11" style="enable-background:new 0 0 89.294 98.11;"
	 xml:space="preserve">
<path d="M46.08,64.446c1.284-6.833,1.022-13.623,0.072-20.416c-0.952-6.808-4.616-11.336-11.068-13.792
	c-6.798-2.587-12.525-6.671-16.46-12.928c-1.966-3.127-3.048-6.643-3.891-10.206c-0.492-2.077-1.191-4.06-2.012-6.014
	c-0.175-0.417-0.349-0.799,0.274-1.029c0.546-0.202,0.636,0.137,0.844,0.512C15.196,3.02,17.41,4.52,19.75,5.901
	c3.939,2.325,8.133,4.113,12.324,5.902c0.976,0.417,1.844,0.935,2.634,1.624c3.16,2.755,5.99,5.763,7.674,9.754
	c-0.038-0.754-0.088-1.507-0.111-2.262c-0.174-5.497,1.586-10.246,5.309-14.336c1.391-1.528,2.458-3.351,3.674-5.038
	c0.242-0.336,0.415-0.872,0.95-0.671c0.44,0.164,0.386,0.645,0.32,1.04c-0.673,4.067,0.171,8.164-0.248,12.237
	c-0.19,1.846-0.777,3.534-1.634,5.187c-1.565,3.02-3.397,5.918-4.435,9.195c-0.638,2.014-0.701,4.058-0.441,6.149
	c0.65,5.212,1.545,10.395,1.783,15.658c0.074,1.629,0.197,3.26,0.279,4.904c1.312-3.714,3.578-7.02,4.229-10.986
	c0.472-2.875,1.543-5.587,2.826-8.216c1.577-3.232,3.049-6.59,5.42-9.273c3.192-3.611,7.298-6.076,11.722-8.045
	c2.765-1.231,5.6-2.232,8.451-3.205c1.88-0.641,3.641-1.529,5.424-2.378c0.354-0.169,0.719-0.352,1.099-0.424
	c1.913-0.363,2.684,0.433,2.107,2.263c-0.541,1.715-1.661,3.162-2.391,4.807c-0.748,1.687-1.878,3.202-2.79,4.82
	c-2.016,3.576-5.404,5.625-8.561,8c-3.383,2.546-7.276,3.979-11.041,5.694c-5.081,2.315-8.918,5.91-11.998,10.526
	c-1.736,2.602-2.932,5.411-4.146,8.241c-0.124,0.29-0.192,0.628-0.193,0.944c-0.03,5.077-1.086,10.056-1.416,15.105
	c-0.18,2.755-0.443,5.5-0.918,8.233c-0.684,3.934-1.525,7.819-2.844,11.586c-0.562,1.605-0.656,3.405-1.922,4.74
	c-0.198,0.209-0.299,0.555-0.627,0.388c-0.266-0.136-0.141-0.461-0.053-0.687c1.629-4.193,2.187-8.709,3.887-12.877
	c0.958-2.349,1.015-4.842,1.235-7.299c0.279-3.106,0.678-6.241,0.519-9.337c-0.182-3.541-1.552-6.662-4.426-9.093
	c-6.135-5.188-13.444-6.677-21.139-7.073c-3.713-0.191-7.076-1.278-10.15-3.398c-2.068-1.426-3.39-3.574-5.303-5.14
	c-1.656-1.357-3.164-2.864-4.4-4.637c-0.741-1.062-0.509-2.717,0.564-3.475c1.9-1.342,4.108-1.465,6.286-1.449
	c2.698,0.02,5.197,1.06,7.682,1.985c2.492,0.927,5.062,1.611,7.594,2.379c5.631,1.709,10.317,4.698,14.107,9.178
	c2.101,2.484,3.908,5.111,4.862,8.265c0.228,0.751,0.476,1.577,0.967,2.154C44.214,59.587,45.669,61.721,46.08,64.446z
	 M41.305,56.786c-0.896-2.947-2.193-5.535-4.078-7.845c-3.197-3.918-6.824-7.222-11.653-9.071c-3.659-1.401-7.43-2.447-11.108-3.774
	c-2.164-0.78-4.315-1.598-6.616-1.841c-2.097-0.221-4.14,0.027-6.08,0.941c-1.087,0.512-1.235,1.355-0.821,2.321
	c0.247,0.577,0.647,1.116,1.075,1.584c2.316,2.534,4.99,4.696,7.381,7.167c3.227,3.336,7.693,4.165,12.027,4.643
	C28.39,51.679,35.08,53.081,41.305,56.786z M52.502,46.364c0.432-0.14,0.542-0.506,0.75-0.775c1.3-1.676,2.569-3.433,4.451-4.472
	c4.556-2.515,9.256-4.778,13.74-7.411c2.791-1.639,5.805-2.997,8.053-5.507c2.385-2.664,4.56-5.467,6.234-8.621
	c0.794-1.497,1.783-2.871,2.542-4.378c0.263-0.521,0.694-1.193,0.263-1.708c-0.474-0.568-1.227-0.27-1.821-0.038
	c-0.766,0.3-1.487,0.71-2.236,1.055c-3.199,1.475-6.624,2.363-9.863,3.709c-3.907,1.624-7.708,3.494-11.014,6.246
	c-1.759,1.464-3.282,3.046-4.468,5.03c-1.941,3.247-3.588,6.63-4.758,10.207C53.667,41.868,52.539,43.949,52.502,46.364z
	 M44.318,36.264c0.164-2.275-0.667-4.251-1.017-6.318c-0.439-2.597-0.997-5.2-2.189-7.519c-2.472-4.808-6.152-8.371-11.162-10.709
	c-5.534-2.584-11.404-4.672-15.917-9.147c0.565,1.647,0.977,3.39,1.917,4.775c2.874,4.234,6.701,7.501,11.101,10.101
	c1.262,0.745,2.487,1.481,3.384,2.745c1.832,2.578,3.977,4.859,6.646,6.645c2.084,1.394,3.56,3.361,4.724,5.6
	C42.506,33.783,43.472,34.992,44.318,36.264z M51.656,2.574c-0.437,0.162-0.668,0.523-0.905,0.867
	c-1.323,1.919-2.801,3.723-4.194,5.586c-2.525,3.376-3.864,7.231-3.206,11.489c0.45,2.913,1.257,5.77,1.942,8.821
	c0.861-3.458,2.334-6.487,4.14-9.331c1.754-2.763,2.275-5.769,2.205-8.934c-0.051-2.315-0.51-4.615-0.129-6.949
	C51.589,3.637,51.996,3.139,51.656,2.574z M40.575,32.182c-1.009-1.811-2.153-3.467-3.869-4.638
	c-1.966-1.342-3.639-2.987-5.181-4.804c-1.379-1.624-2.534-3.466-4.49-4.57c-3.77-2.128-7.064-4.862-9.883-8.155
	c-0.178-0.208-0.302-0.614-0.619-0.417c-0.256,0.159-0.07,0.527,0.003,0.803c0.551,2.07,1.644,3.862,2.777,5.655
	c3.237,5.125,7.579,8.98,13.022,11.619c1.255,0.608,2.53,1.181,3.75,1.854C37.606,30.368,39.08,31.294,40.575,32.182z"/>
</svg>
