<svg width="90" height="99" viewBox="0 0 90 99" fill="none" xmlns="http://www.w3.org/2000/svg">
<path d="M46.0801 64.4461C47.3641 57.6131 47.1021 50.8231 46.1521 44.0301C45.2001 37.2221 41.5361 32.6941 35.0841 30.2381C28.2861 27.6511 22.5591 23.5671 18.6241 17.3101C16.6581 14.1831 15.5761 10.6671 14.7331 7.10411C14.2411 5.02711 13.5421 3.04411 12.7211 1.09011C12.5461 0.67311 12.3721 0.29111 12.9951 0.0611099C13.5411 -0.14089 13.6311 0.19811 13.8391 0.57311C15.1961 3.02011 17.4101 4.52011 19.7501 5.90111C23.6891 8.22611 27.8831 10.0141 32.0741 11.8031C33.0501 12.2201 33.9181 12.7381 34.7081 13.4271C37.8681 16.1821 40.6981 19.1901 42.3821 23.1811C42.3441 22.4271 42.2941 21.6741 42.2711 20.9191C42.0971 15.4221 43.8571 10.6731 47.5801 6.58311C48.9711 5.05511 50.0381 3.23211 51.2541 1.54511C51.4961 1.20911 51.6691 0.67311 52.2041 0.87411C52.6441 1.03811 52.5901 1.51911 52.5241 1.91411C51.8511 5.98111 52.6951 10.0781 52.2761 14.1511C52.0861 15.9971 51.4991 17.6851 50.6421 19.3381C49.0771 22.3581 47.2451 25.2561 46.2071 28.5331C45.5691 30.5471 45.5061 32.5911 45.7661 34.6821C46.4161 39.8941 47.3111 45.0771 47.5491 50.3401C47.6231 51.9691 47.7461 53.6001 47.8281 55.2441C49.1401 51.5301 51.4061 48.2241 52.0571 44.2581C52.5291 41.3831 53.6001 38.6711 54.8831 36.0421C56.4601 32.8101 57.9321 29.4521 60.3031 26.7691C63.4951 23.1581 67.6011 20.6931 72.0251 18.7241C74.7901 17.4931 77.6251 16.4921 80.4761 15.5191C82.3561 14.8781 84.1171 13.9901 85.9001 13.1411C86.2541 12.9721 86.6191 12.7891 86.9991 12.7171C88.9121 12.3541 89.6831 13.1501 89.1061 14.9801C88.5651 16.6951 87.4451 18.1421 86.7151 19.7871C85.9671 21.4741 84.8371 22.9891 83.9251 24.6071C81.9091 28.1831 78.5211 30.2321 75.3641 32.6071C71.9811 35.1531 68.0881 36.5861 64.3231 38.3011C59.2421 40.6161 55.4051 44.2111 52.3251 48.8271C50.5891 51.4291 49.3931 54.2381 48.1791 57.0681C48.0551 57.3581 47.9871 57.6961 47.9861 58.0121C47.9561 63.0891 46.9001 68.0681 46.5701 73.1171C46.3901 75.8721 46.1271 78.6171 45.6521 81.3501C44.9681 85.2841 44.1271 89.1691 42.8081 92.9361C42.2461 94.5411 42.1521 96.3411 40.8861 97.6761C40.6881 97.8851 40.5871 98.2311 40.2591 98.0641C39.9931 97.9281 40.1181 97.6031 40.2061 97.3771C41.8351 93.1841 42.3931 88.6681 44.0931 84.5001C45.0511 82.1511 45.1081 79.6581 45.3281 77.2011C45.6071 74.0951 46.0061 70.9601 45.8471 67.8641C45.6651 64.3231 44.2951 61.2021 41.4211 58.7711C35.2861 53.5831 27.9771 52.0941 20.2821 51.6981C16.5691 51.5071 13.2061 50.4201 10.1321 48.3001C8.06412 46.8741 6.74211 44.7261 4.82911 43.1601C3.17311 41.8031 1.66511 40.2961 0.429115 38.5231C-0.311885 37.4611 -0.0798851 35.8061 0.993115 35.0481C2.89311 33.7061 5.10111 33.5831 7.27911 33.5991C9.97711 33.6191 12.4761 34.6591 14.9611 35.5841C17.4531 36.5111 20.0231 37.1951 22.5551 37.9631C28.1861 39.6721 32.8721 42.6611 36.6621 47.1411C38.7631 49.6251 40.5701 52.2521 41.5241 55.4061C41.7521 56.1571 42.0001 56.9831 42.4911 57.5601C44.2141 59.5871 45.6691 61.7211 46.0801 64.4461ZM41.3051 56.7861C40.4091 53.8391 39.1121 51.2511 37.2271 48.9411C34.0301 45.0231 30.4031 41.7191 25.5741 39.8701C21.9151 38.4691 18.1441 37.4231 14.4661 36.0961C12.3021 35.3161 10.1511 34.4981 7.85011 34.2551C5.75311 34.0341 3.71011 34.2821 1.77011 35.1961C0.683115 35.7081 0.535115 36.5511 0.949115 37.5171C1.19611 38.0941 1.59611 38.6331 2.02411 39.1011C4.34011 41.6351 7.01412 43.7971 9.40512 46.2681C12.6321 49.6041 17.0981 50.4331 21.4321 50.9111C28.3901 51.6791 35.0801 53.0811 41.3051 56.7861ZM52.5021 46.3641C52.9341 46.2241 53.0441 45.8581 53.2521 45.5891C54.5521 43.9131 55.8211 42.1561 57.7031 41.1171C62.2591 38.6021 66.9591 36.3391 71.4431 33.7061C74.2341 32.0671 77.2481 30.7091 79.4961 28.1991C81.8811 25.5351 84.0561 22.7321 85.7301 19.5781C86.5241 18.0811 87.5131 16.7071 88.2721 15.2001C88.5351 14.6791 88.9661 14.0071 88.5351 13.4921C88.0611 12.9241 87.3081 13.2221 86.7141 13.4541C85.9481 13.7541 85.2271 14.1641 84.4781 14.5091C81.2791 15.9841 77.8541 16.8721 74.6151 18.2181C70.7081 19.8421 66.9071 21.7121 63.6011 24.4641C61.8421 25.9281 60.3191 27.5101 59.1331 29.4941C57.1921 32.7411 55.5451 36.1241 54.3751 39.7011C53.6671 41.8681 52.5391 43.9491 52.5021 46.3641ZM44.3181 36.2641C44.4821 33.9891 43.6511 32.0131 43.3011 29.9461C42.8621 27.3491 42.3041 24.7461 41.1121 22.4271C38.6401 17.6191 34.9601 14.0561 29.9501 11.7181C24.4161 9.13411 18.5461 7.04611 14.0331 2.57111C14.5981 4.21811 15.0101 5.96111 15.9501 7.34611C18.8241 11.5801 22.6511 14.8471 27.0511 17.4471C28.3131 18.1921 29.5381 18.9281 30.4351 20.1921C32.2671 22.7701 34.4121 25.0511 37.0811 26.8371C39.1651 28.2311 40.6411 30.1981 41.8051 32.4371C42.5061 33.7831 43.4721 34.9921 44.3181 36.2641ZM51.6561 2.57411C51.2191 2.73611 50.9881 3.09711 50.7511 3.44111C49.4281 5.36011 47.9501 7.16411 46.5571 9.02711C44.0321 12.4031 42.6931 16.2581 43.3511 20.5161C43.8011 23.4291 44.6081 26.2861 45.2931 29.3371C46.1541 25.8791 47.6271 22.8501 49.4331 20.0061C51.1871 17.2431 51.7081 14.2371 51.6381 11.0721C51.5871 8.75711 51.1281 6.45711 51.5091 4.12311C51.5891 3.63711 51.9961 3.13911 51.6561 2.57411ZM40.5751 32.1821C39.5661 30.3711 38.4221 28.7151 36.7061 27.5441C34.7401 26.2021 33.0671 24.5571 31.5251 22.7401C30.1461 21.1161 28.9911 19.2741 27.0351 18.1701C23.2651 16.0421 19.9711 13.3081 17.1521 10.0151C16.9741 9.80711 16.8501 9.40111 16.5331 9.59811C16.2771 9.75711 16.4631 10.1251 16.5361 10.4011C17.0871 12.4711 18.1801 14.2631 19.3131 16.0561C22.5501 21.1811 26.8921 25.0361 32.3351 27.6751C33.5901 28.2831 34.8651 28.8561 36.0851 29.5291C37.6061 30.3681 39.0801 31.2941 40.5751 32.1821Z" fill="gray"/>
</svg>
