<svg width="63" height="234" viewBox="0 0 63 234" fill="none" xmlns="http://www.w3.org/2000/svg">
<path d="M32.3241 59.463C33.0911 59.51 33.6561 59.061 34.2961 58.869C40.2481 57.077 45.7831 54.377 50.9941 51.017C52.3461 50.145 53.5441 49.038 54.8461 48.084C55.3381 47.723 50.3261 53.122 47.5601 56.151C42.6761 61.498 37.0411 65.785 29.9661 67.874C27.7641 68.524 27.2771 70.519 26.6251 72.298C25.0931 76.481 23.6681 80.703 22.2071 84.911C20.7261 89.177 18.7571 93.185 16.0481 96.819C13.3541 100.433 11.8491 104.636 10.1351 108.747C8.58008 112.476 6.96408 116.187 5.06208 119.763C4.13708 121.503 3.25708 123.267 2.39908 125.042C1.94308 125.985 1.70408 126.963 1.89208 128.059C2.41208 131.093 2.90008 134.131 3.72608 137.372C4.96808 133.66 7.40708 130.889 9.33308 127.822C11.6271 124.169 13.8971 120.463 17.1181 117.464C19.8601 114.912 22.9161 112.895 26.3431 111.429C31.5881 109.184 37.0361 107.493 42.4051 105.584C44.3611 104.888 46.2381 103.893 48.2431 103.431C51.4151 102.7 54.6631 102.299 57.8801 101.765C59.0421 101.572 60.2041 101.379 61.3721 101.237C61.6311 101.206 62.1141 101.027 62.1531 101.516C62.1851 101.92 61.7361 101.841 61.4891 101.881C57.1681 102.575 53.5211 104.802 49.8771 107.012C46.6201 108.987 43.6191 111.359 40.7261 113.794C38.3451 115.798 35.8181 117.51 33.2061 119.137C28.6101 121.999 23.7261 124.146 18.4171 125.395C12.2581 126.845 7.83608 130.648 4.90108 136.198C4.29608 137.342 3.97108 138.555 4.33808 139.928C5.14208 142.942 5.93208 145.967 6.53208 149.026C7.15108 152.175 8.75508 154.918 9.85008 157.867C11.1601 161.393 12.5451 164.891 13.9171 168.393C14.0111 168.634 14.0421 168.971 14.5041 169.12C14.2901 166.051 15.4481 163.244 15.8331 160.295C16.7041 153.623 19.4481 147.78 24.3371 142.99C29.6421 137.792 33.9891 131.794 38.2921 125.772C40.0931 123.252 41.3211 120.422 42.6231 117.634C42.7791 117.299 42.8631 116.682 43.3261 116.83C43.8461 116.997 43.4331 117.501 43.3591 117.836C42.7371 120.638 41.2251 123.175 40.9161 126.072C40.3651 131.233 38.1941 135.721 35.4201 140.041C33.3761 143.223 31.1461 146.273 28.5201 148.922C26.3091 151.152 24.2221 153.518 21.8521 155.617C19.3061 157.873 17.6101 160.805 16.3631 164.013C15.6571 165.83 15.4321 167.681 15.2131 169.57C15.0341 171.12 15.9301 172.311 16.4581 173.62C18.5931 178.915 21.3141 183.932 23.9241 188.996C25.0211 191.124 26.1551 193.238 27.3421 195.376C27.0911 192.301 28.0291 189.312 27.8031 186.248C27.2511 178.749 27.3591 171.313 30.1491 164.17C31.4781 160.769 33.5081 157.785 35.6481 154.85C38.3541 151.138 40.9161 147.321 43.5971 143.591C44.7151 142.036 45.3361 140.292 45.8431 138.496C46.2101 137.196 46.7661 136.006 47.5571 134.928C48.2511 133.983 48.2091 132.818 48.5861 131.783C48.6981 131.474 48.7251 130.927 49.1961 131.062C49.5981 131.177 49.3411 131.613 49.2721 131.907C48.2571 136.225 48.2011 140.669 47.5311 145.033C46.6941 150.489 44.9751 155.673 42.6121 160.638C41.4331 163.115 39.5521 165.14 37.8611 167.277C34.4831 171.548 32.3221 176.374 31.0041 181.647C30.2571 184.635 29.0151 187.504 28.5691 190.569C27.9721 194.669 28.4541 198.551 30.5241 202.3C33.6621 207.982 36.0211 214.058 38.9251 219.86C40.2041 222.416 41.5481 224.947 42.7581 227.538C43.6401 229.427 44.4491 231.364 44.9581 233.624C43.4701 232.029 43.0021 230.147 42.2431 228.418C40.8741 225.299 39.3241 222.277 37.7021 219.279C36.5671 217.181 35.7401 214.91 34.6731 212.758C31.3341 206.023 28.1421 199.214 24.7301 192.518C22.6651 188.466 20.5951 184.411 18.5621 180.347C15.4571 174.141 12.6891 167.764 10.0271 161.349C8.92908 158.702 7.65908 156.12 6.87508 153.353C6.19308 150.946 5.61708 148.51 4.95508 146.097C4.10008 142.986 3.15608 139.905 2.52408 136.729C1.16308 129.896 0.171079 123.045 0.126079 116.049C0.0930785 110.967 -0.136921 105.88 0.110079 100.806C0.346079 95.949 0.631079 91.076 1.47408 86.274C2.57808 79.988 3.26408 73.622 4.95608 67.447C5.80708 64.34 6.68508 61.229 8.34708 58.428C9.17408 57.034 9.25608 55.425 9.76908 53.942C11.5261 48.868 13.8581 44.105 16.9901 39.717C19.7811 35.807 22.3051 31.718 24.6901 27.542C27.0341 23.438 29.4341 19.365 31.8471 15.301C34.7451 10.42 38.3551 6.115 42.5041 2.25C43.2791 1.529 43.8011 0.563 44.7501 0C44.2711 0.901 43.9571 1.829 43.1621 2.608C41.3911 4.344 40.4811 6.664 39.5741 8.921C37.8681 13.163 36.8331 17.614 35.6951 22.03C35.0921 24.368 33.9301 26.496 33.0551 28.733C31.5981 32.457 29.6531 35.924 27.5121 39.282C25.1281 43.022 22.1801 46.291 18.9711 49.343C16.0301 52.14 13.1041 54.953 10.2361 57.824C7.94608 60.116 7.02508 63.146 6.14208 66.139C4.15208 72.879 3.68308 79.918 2.18908 86.759C2.17608 86.819 2.21408 86.89 2.25308 87.064C2.76508 86.819 2.89808 86.33 3.12308 85.93C5.48308 81.728 7.76608 77.484 10.6511 73.598C13.4871 69.778 16.7501 66.46 21.0291 64.264C21.6591 63.941 22.0521 63.572 22.2811 62.826C22.5471 61.958 23.1401 61.182 23.6331 60.392C25.0181 58.172 26.2861 55.862 27.8661 53.789C29.0481 52.238 30.6331 50.993 32.0521 49.625C35.2131 46.58 38.7311 43.849 40.6221 39.697C40.8181 39.267 41.1391 38.484 41.7171 38.745C42.2541 38.987 41.8961 39.735 41.7451 40.196C40.4671 44.076 38.5901 47.656 36.2991 51.036C34.6431 53.48 33.1751 56.034 32.4021 58.922C32.3581 59.087 32.3521 59.265 32.3241 59.463ZM18.9301 72.221C16.1421 73.663 13.7561 75.101 11.9081 77.233C9.21408 80.341 6.57808 83.502 4.02008 86.722C3.35408 87.561 2.20508 88.064 1.96208 89.131C1.63808 90.557 1.48808 92.042 1.43508 93.507C1.29708 97.345 1.35508 101.192 1.14508 105.025C0.891079 109.659 0.789079 114.285 1.18108 118.91C1.34208 120.814 1.24208 122.744 1.62608 124.764C3.64208 121.031 5.54708 117.432 7.20108 113.701C8.24808 111.338 8.85508 108.806 9.99308 106.495C12.0571 102.306 13.3691 97.913 14.0501 93.299C14.5831 89.689 15.0211 86.038 15.9351 82.518C16.8041 79.173 17.2371 75.69 18.9301 72.221ZM9.93108 56.784C10.9851 55.72 11.9281 54.508 13.1141 53.619C16.8711 50.801 20.1311 47.464 23.0471 43.845C25.9951 40.188 28.3551 36.103 30.3021 31.805C32.0621 27.919 34.0151 24.11 35.4081 20.073C36.4231 17.133 37.1941 14.11 38.0931 11.13C38.7161 9.064 39.7611 7.165 40.7041 4.926C40.3281 5.269 40.1631 5.405 40.0151 5.558C35.6211 10.072 32.2891 15.349 29.2411 20.803C26.6001 25.53 23.8721 30.205 20.9791 34.777C17.8221 39.766 14.1091 44.408 11.8641 49.955C10.9781 52.146 10.1051 54.32 9.93108 56.784ZM9.80808 128.269C13.4341 126.491 16.8601 124.331 20.7741 123.261C24.6711 122.195 28.3391 120.572 31.9241 118.763C36.8301 116.286 40.9901 112.716 45.3111 109.389C48.5271 106.913 51.9001 104.687 55.5771 102.902C52.8311 103.395 49.9511 103.24 47.3731 104.34C44.3971 105.609 41.2831 106.451 38.2821 107.634C33.6191 109.471 28.7861 110.827 24.2651 113.095C20.4701 114.999 17.4891 117.748 14.7691 120.85C12.8091 123.084 11.4581 125.764 9.80808 128.269ZM28.5601 187.905C29.1451 185.845 29.7201 184.072 30.1481 182.264C31.4811 176.636 33.8051 171.485 37.3021 166.865C40.9931 161.989 43.5491 156.54 45.4721 150.758C46.7061 147.048 47.2151 143.217 47.5791 139.356C47.6881 138.203 48.0441 137.067 47.9181 135.797C47.4301 136.198 47.3021 136.694 47.0781 137.128C46.1231 138.979 45.9081 141.137 44.7501 142.897C42.1111 146.908 39.0741 150.635 36.4251 154.647C34.3711 157.758 32.0951 160.721 30.7131 164.216C27.7121 171.804 27.7011 179.688 28.5601 187.905ZM49.2261 52.801C48.4491 52.947 47.9251 53.592 47.2581 53.988C42.4371 56.854 37.1371 58.575 31.8611 60.304C27.4071 61.763 23.0681 63.37 19.1631 66.037C14.4951 69.226 11.0531 73.477 8.20908 78.281C7.36608 79.706 6.52208 81.13 5.67908 82.555C6.66808 81.813 7.49508 80.968 8.24808 80.062C10.8141 76.974 13.7021 74.266 17.1661 72.188C21.6941 69.473 26.7411 67.936 31.6101 66.075C38.8431 63.31 44.7721 59.085 49.2261 52.801ZM40.6631 123.366C38.6091 126.676 36.2811 129.571 34.0501 132.54C31.7421 135.612 29.3241 138.597 26.6361 141.325C23.5711 144.435 20.7331 147.658 18.8381 151.642C17.4241 154.616 16.8991 157.803 16.3011 160.992C16.6021 160.74 16.7891 160.446 16.9771 160.154C18.7131 157.465 20.5621 154.847 22.9261 152.678C28.1681 147.867 32.7841 142.56 36.3831 136.395C38.7081 132.413 40.3451 128.213 40.6631 123.366ZM27.0181 69.002C25.0451 69.764 23.4231 70.546 21.7141 71.007C19.9361 71.487 19.1591 72.701 18.6511 74.261C18.3731 75.113 18.0881 75.966 17.8681 76.834C16.6611 81.593 15.5161 86.358 14.9341 91.252C14.6231 93.866 14.3051 96.494 13.5611 99.111C20.6931 90.301 23.1271 79.529 27.0181 69.002ZM22.9431 63.111C25.4721 61.758 28.0691 60.965 30.6471 60.12C30.9191 60.031 31.2161 60.036 31.2891 59.561C31.5271 58.02 32.3021 56.65 33.0411 55.325C34.7641 52.233 36.6921 49.255 38.4521 46.182C39.3701 44.579 40.1351 42.884 40.6071 41.072C39.6371 42.324 38.9861 43.782 37.8331 44.879C36.0131 46.61 34.1291 48.279 32.3911 50.088C30.8551 51.686 28.9881 52.971 27.8041 54.907C26.6851 56.737 25.5101 58.533 24.4201 60.38C23.9211 61.222 23.1931 61.954 22.9431 63.111ZM31.6741 66.733C31.7911 66.695 31.8811 66.67 31.9651 66.634C31.9841 66.626 31.9851 66.577 31.9951 66.546C31.9001 66.557 31.8041 66.561 31.7131 66.583C31.6941 66.587 31.6921 66.658 31.6741 66.733Z" fill="gray"/>
</svg>
