<svg width="53" height="28" viewBox="0 0 53 28" fill="none" xmlns="http://www.w3.org/2000/svg">
<path d="M0 27V25.7344L1.88086 25.6641L11.0215 1.40625H12.6387L20.9629 23.5L23.2129 25.25L25.4629 27C25.4629 27 21.9629 26.25 20.9629 25.25C19.9629 24.25 18.6693 21.8242 17.7891 19.459H5.83594L3.5332 25.6465L5.90625 25.7344V27H0ZM6.38086 18.0176H17.2617L12.3047 4.60547L11.8828 3.375H11.7773L11.373 4.60547L6.38086 18.0176Z" fill="black"/>
<path d="M26.9627 27.0001C25.3573 27.0001 24.0741 27.0938 22.9022 26.5431C21.742 25.9806 20.9627 25.5001 20.2127 24.2052C19.5799 23.1974 19.2635 22.0079 19.2635 20.6368C19.2635 19.2774 19.6561 18.0411 20.4413 16.9278C21.2381 15.8145 22.369 14.6778 23.8338 13.5177C23.951 13.4122 24.0682 13.3126 24.1854 13.2188C24.3026 13.1251 24.4198 13.0372 24.537 12.9552C23.5877 11.7599 21.9627 11 20.9627 10C19.9627 9 18.9629 6.03125 18.9629 5C18.9626 3.19094 19.3699 0.000309698 21.9628 0C23.9628 0.00014849 25.9628 3 25.9628 3C25.9628 3 28.2133 2.00272e-05 29.9627 4.76432e-10C32.4055 -7.48282e-05 32.9629 3.32463 32.9629 5C32.9629 6.03125 32.3417 7.76377 31.8495 8.49033C31.3573 9.20517 30.6542 9.92002 29.7401 10.6349L26.6112 13.1134L34.3631 22.0255C34.9491 21.1583 35.4061 20.1915 35.7342 19.1251C36.0741 18.0587 36.244 16.922 36.244 15.7149H37.7557C37.7557 17.1915 37.5448 18.545 37.1229 19.7755C36.701 21.006 36.1034 22.131 35.3299 23.1505L38.5819 26.9122L38.5467 27.0001H36.7538L34.3104 24.2227C33.4081 25.0899 32.4354 25.9102 31.1991 26.4552C29.9627 27.0001 28.5448 27.0001 26.9627 27.0001ZM26.9627 25.5001C28.1463 25.5001 29.9627 25.5001 30.9627 25.0001C31.9627 24.5001 32.535 24.0528 33.3788 23.1505L25.4334 14.0099L24.5721 14.6778C23.1073 15.92 22.117 17.0157 21.6014 17.9649C21.0975 18.9142 20.8456 19.8048 20.8456 20.6368C20.8456 22.1485 21.3788 23.42 22.4452 24.4513C23.5116 25.4708 24.9471 25.5001 26.9627 25.5001ZM25.7323 12.0938L29.1073 9.49228C29.9628 8.81073 31.4629 6.18289 31.4629 5C31.4629 3.99219 30.9627 2.15244 29.9627 1.65244C28.9627 1.15244 25.9627 4.5 25.9627 4.5C25.9627 4.5 22.9628 1.15244 21.9628 1.65244C20.9628 2.15244 20.4629 3.79297 20.4629 5C20.4629 5.84375 21.4628 8.5 22.4627 9.49228L25.7323 12.0938Z" fill="black"/>
<path d="M36.9629 27L36.1289 25.6113V2.79492L33.2637 2.67188V1.40625H43.2129C45.873 1.40625 47.9355 1.96289 49.4004 3.07617C50.877 4.17773 51.6152 5.83594 51.6152 8.05078C51.6152 9.48047 51.2285 10.6992 50.4551 11.707C49.6934 12.7148 48.627 13.3652 47.2559 13.6582C48.3223 13.8223 49.2656 14.2031 50.0859 14.8008C50.918 15.3984 51.5684 16.1426 52.0371 17.0332C52.5176 17.9121 52.7578 18.8672 52.7578 19.8984C52.7578 22.1719 52.0195 23.9238 50.543 25.1543C49.0781 26.3848 47.1328 27 44.707 27H36.9629ZM37.7109 25.6113H44.707C46.7109 25.6113 48.2871 25.1133 49.4355 24.1172C50.584 23.1211 51.1582 21.7266 51.1582 19.9336C51.1582 18.9023 50.918 17.9824 50.4375 17.1738C49.957 16.3535 49.2539 15.709 48.3281 15.2402C47.4141 14.7598 46.2949 14.5195 44.9707 14.5195H37.7109V25.6113ZM37.7109 13.1309H43.7051C45.7676 13.1309 47.3379 12.7031 48.416 11.8477C49.4941 10.9805 50.0332 9.69141 50.0332 7.98047C50.0332 6.26953 49.4531 4.98047 48.293 4.11328C47.1445 3.23438 45.4512 2.79492 43.2129 2.79492H37.7109V13.1309Z" fill="black"/>
</svg>
